<svg width="165" height="110" viewBox="0 0 165 110" fill="none" xmlns="http://www.w3.org/2000/svg">
<path d="M11.3916 58.0609C12.9346 59.3913 14.8297 60.7783 16.524 62.0142L11.3916 58.0609ZM151.682 61.6172L131.643 29.7784H134.952C135.039 29.7784 134.864 31.1301 134.992 31.5129C135.294 32.4321 138.858 32.4273 139.167 31.5105L139.217 15.9432C139.552 14.3057 135.155 14.8728 134.985 15.1611C134.796 15.4777 135.214 16.6001 134.578 16.7561C134.446 16.7868 133.156 16.5079 132.497 16.5718C129.387 16.8718 127.667 19.0411 126.563 21.7396C126.154 21.7301 122.648 15.1398 122.033 14.9271C120.441 14.3742 117.281 17.4153 115.575 17.4909V5.79421C115.575 5.75168 115.027 5.20347 114.985 5.20347H111.086V1.54085C111.086 0.253029 107.069 0.60275 107.069 1.06826V11.5835C108.096 11.8694 111.086 12.3113 111.086 10.7565V7.09385H113.921V19.0269C113.921 19.119 112.86 20.043 112.643 20.3454C111.516 21.9003 110.729 23.5402 110.443 25.4731C111.258 37.9094 113.848 50.2489 115.209 62.6593L105.856 86.9294L80.114 86.8609L76.2884 59.1384L9.11603 35.1967C8.237 35.2015 7.90618 35.9765 7.81875 36.7445C7.41468 40.2606 7.54701 47.7701 7.81403 51.4091C7.88255 52.3141 8.11649 53.739 8.42131 54.585C8.77812 55.5774 9.92653 56.7943 11.3916 58.0609C12.9346 59.3913 14.8297 60.7783 16.524 62.0142C17.9488 63.0515 19.2319 63.9802 20.0472 64.682C20.1866 64.8001 20.3992 64.7174 20.3898 64.9891L45.6618 84.4506L45.8651 84.4861L58.8236 94.5878L61.0023 96.2844L61.8317 96.6365L115.469 96.6601C118.222 96.8586 116.19 92.2343 116.053 90.3864C114.725 72.4727 129.949 59.1431 147.525 62.2197C148.773 62.4395 152.197 64.1314 151.682 61.6172Z" fill="#D5BEFC"/>
<path d="M22.6881 109.836C10.4738 109.836 0.535156 99.8972 0.535156 87.6829C0.535156 75.4687 10.4738 65.53 22.6881 65.53C34.9023 65.53 44.841 75.4687 44.841 87.6829C44.841 99.8972 34.9023 109.836 22.6881 109.836ZM22.6881 74.5093C15.4243 74.5093 9.51447 80.4191 9.51447 87.6829C9.51447 94.9467 15.4243 100.857 22.6881 100.857C29.9519 100.857 35.8617 94.9467 35.8617 87.6829C35.8617 80.4191 29.9519 74.5093 22.6881 74.5093Z" fill="#7225F5"/>
<path d="M142.555 109.836C130.341 109.836 120.402 99.8972 120.402 87.6829C120.402 75.4687 130.341 65.53 142.555 65.53C154.769 65.53 164.708 75.4687 164.708 87.6829C164.708 99.8972 154.769 109.836 142.555 109.836ZM142.555 74.5093C135.291 74.5093 129.382 80.4191 129.382 87.6829C129.382 94.9467 135.291 100.857 142.555 100.857C149.819 100.857 155.729 94.9467 155.729 87.6829C155.729 80.4191 149.819 74.5093 142.555 74.5093Z" fill="#7225F5"/>
<path d="M80.8892 43.9203L44.1743 30.5208C40.5443 29.196 36.5276 31.0648 35.2028 34.6948C33.878 38.3248 35.7467 42.3415 39.3767 43.6663L76.0917 57.0657C79.7217 58.3905 83.7384 56.5218 85.0632 52.8918C86.388 49.2618 84.5192 45.2451 80.8892 43.9203Z" fill="#7225F5"/>
</svg>
