<svg width="104" height="104" viewBox="0 0 104 104" fill="none" xmlns="http://www.w3.org/2000/svg">
<path d="M67.1834 10.3195C83.4476 9.12732 95.7897 24.7683 91.0683 40.3618C85.7033 58.0892 62.5297 62.5667 50.8583 48.0909C39.2004 33.6286 48.711 11.6743 67.1834 10.3195ZM68.4705 22.14C65.9032 23.5422 62.3604 24.7006 59.976 26.2856C59.2444 26.7734 58.8718 27.2814 58.7838 28.1688C58.5331 30.77 58.5331 36.4398 58.7838 39.0409C58.8651 39.8606 59.2038 40.4093 59.8744 40.8699C61.2224 41.8047 66.1673 44.2298 67.7592 44.8123C68.8227 45.2052 69.0192 45.2052 70.0827 44.8123C71.7626 44.1959 76.3892 41.9063 77.8591 40.9309C78.4891 40.5176 78.9497 39.9825 79.0446 39.2035C78.7804 35.6675 79.3832 31.6574 79.0446 28.1756C78.9633 27.3559 78.6246 26.8072 77.9539 26.3466C76.6127 25.4118 71.661 22.9868 70.0691 22.4042C69.534 22.2078 69.0598 21.9774 68.4637 22.1468L68.4705 22.14Z" fill="#D5BEFC"/>
<path d="M46.3138 49.9606C47.8921 52.4805 50.2291 54.6346 52.6339 56.3551L19.3469 89.6489C14.8083 92.8598 9.6737 87.4881 12.9523 83.0918L45.9074 50.1164L46.3138 49.9606Z" fill="#D5BEFC"/>
<path d="M68.7901 27.3086C70.6462 28.0131 72.5564 28.9885 74.2635 30.0317V37.1579C72.5971 38.2349 70.7207 39.0478 68.9188 39.9013C67.117 39.0478 65.2406 38.2349 63.5742 37.1579V30.0317L68.7969 27.3086H68.7901Z" fill="#7225F5"/>
<path d="M24.7246 88.9173L39.5527 74.0146L43.9354 78.3974C44.4977 78.9596 44.5044 79.8741 43.9422 80.4431L31.2614 93.3135C30.6992 93.8825 29.778 93.8893 29.2089 93.3271L24.7314 88.9105L24.7246 88.9173Z" fill="#D5BEFC"/>
<path d="M36.9043 45.1442L42.1067 39.3525L43.834 46.0722L36.9043 45.1442Z" fill="#7225F5"/>
<path d="M36.1809 51.6607C30.0844 44.6226 25.6746 39.2373 23.0666 35.6471C20.208 31.7047 19.0971 29.5777 20.5264 28.1552C21.6305 27.0646 23.1411 25.5675 41.0988 41.3982L38.8566 43.9384C34.1894 39.8266 28.7635 35.3897 25.2681 32.9105C27.2258 35.681 31.1005 40.626 38.7414 49.4388L36.1809 51.6539V51.6607Z" fill="#7225F5"/>
<path d="M59.1438 66.4144L53.3385 72.9241L51.3809 65.3983L59.1438 66.4144Z" fill="#7225F5"/>
<path d="M74.0063 84.1079C72.1773 84.1079 67.8217 81.7641 54.748 70.2417L56.9902 67.7015C61.6574 71.8132 67.0833 76.2501 70.5787 78.7294C68.621 75.9589 64.7463 71.0139 57.1054 62.201L59.6659 59.986C65.7624 67.0241 70.1723 72.4093 72.7802 75.9995C75.6388 79.9419 76.7497 82.0689 75.3204 83.4914C75.0224 83.7895 74.6905 84.1146 74.0063 84.1146V84.1079Z" fill="#7225F5"/>
</svg>
