<svg width="191" height="131" viewBox="0 0 191 131" fill="none" xmlns="http://www.w3.org/2000/svg">
<path d="M47.5039 59.743V12.7254L129.101 10.9053L139.718 9.99536C145.077 18.3877 156.705 36.4465 160.345 41.5426C163.985 46.6387 164.289 55.7996 163.985 59.743H47.5039Z" fill="#7225F5"/>
<path d="M185.184 89.1621C185.024 88.9479 184.86 88.7383 184.687 88.5333C185.193 89.5402 185.598 90.6201 185.872 91.7773C186.122 90.9937 185.685 89.8409 185.184 89.1621ZM157.992 41.4719C158.215 41.8546 158.434 42.2328 158.653 42.6155C158.534 42.406 158.411 42.1918 158.288 41.9777C158.197 41.8182 158.097 41.6496 157.992 41.4719Z" fill="black"/>
<path d="M184.683 88.5335C179.63 78.4642 164.322 75.776 164.322 75.776C165.019 72.3816 165.561 68.9508 165.843 65.5199C166.595 56.33 166.522 49.5731 162.066 41.3719C158.859 35.467 154.712 29.1794 151.14 23.4066C148.047 18.3948 144.415 11.606 140.975 7.07251C138.091 3.27261 133.275 1.5868 128.692 0.976267C95.1852 0.698337 61.5191 0.174369 28.0445 1.2542C16.7268 2.97646 8.12915 13.2052 7.32269 24.4637L7.20423 79.2524C6.82151 80.0406 5.3544 79.626 4.58895 79.7399C3.63214 79.8903 2.77557 80.8744 2.60243 81.813C2.28805 83.5672 2.2835 91.8778 2.56143 93.682C2.90314 95.9009 4.91245 95.5592 5.29517 96.1971C5.50931 96.5525 5.46375 98.416 5.40908 98.9445C5.00813 102.89 1.71852 101.642 0.820944 104.385C0.54757 105.218 0.502008 107.829 0.647807 108.722C0.825501 109.784 1.96912 110.9 3.00794 111.142C4.11055 111.397 6.8534 111.406 8.18382 111.46C8.65312 111.479 9.08596 111.201 9.57803 111.233C10.3161 111.278 11.0953 111.524 11.8562 111.574C11.806 110.968 11.7833 110.358 11.7833 109.738C11.7833 96.8668 22.217 86.4331 35.0884 86.4331C47.9598 86.4331 58.3936 96.8668 58.3936 109.738C58.3936 110.367 58.3662 110.996 58.3207 111.611C59.1772 110.864 61.1683 111.474 62.1023 111.492C85.7902 111.943 109.583 111.328 133.257 111.242C137.718 110.709 141.973 109.109 145.427 106.221C145.928 105.802 148.311 103.205 148.53 103.186C148.557 103.186 148.593 103.191 148.639 103.205C151.464 93.5134 160.412 86.4331 171.015 86.4331C176.651 86.4331 181.822 88.4378 185.85 91.7593C185.863 91.773 185.868 91.7775 185.868 91.7775C185.595 90.6202 185.189 89.5404 184.683 88.5335ZM87.4396 49.9103C87.4396 51.9104 85.8175 53.5325 83.8174 53.5325H55.3864C53.3863 53.5325 51.7642 51.9104 51.7642 49.9103V17.5974C51.7642 15.5972 53.3863 13.9752 55.3864 13.9752H83.8174C85.8175 13.9752 87.4396 15.5972 87.4396 17.5974V49.9103ZM135.95 53.5325H93.996C91.9958 53.5325 90.3738 51.9104 90.3738 49.9103V17.5974C90.3738 15.5972 91.9958 13.9752 93.996 13.9752H123.561C125.06 13.9752 126.405 14.9001 126.942 16.2989L139.335 48.6117C140.242 50.9855 138.492 53.5325 135.95 53.5325ZM149.714 53.5325C148.985 53.5325 148.325 53.0951 148.038 52.4207L143.372 41.3992C143.281 41.258 143.194 41.1167 143.121 40.9755C141.34 37.6358 139.918 33.8359 138.538 29.9767L132.496 15.7066C132.095 14.7589 132.56 13.6699 133.517 13.2963L134.783 12.8088C135.959 11.8793 137.704 11.4237 139.44 11.0091C145.846 20.8369 151.888 30.9335 157.756 41.0803C157.838 41.217 157.915 41.3491 157.988 41.4721C158.093 41.6498 158.193 41.8184 158.285 41.9778C158.408 42.192 158.531 42.4061 158.649 42.6157C158.667 42.6476 158.681 42.675 158.699 42.7023C158.777 42.8344 158.849 42.962 158.927 43.0941C158.931 43.1032 158.931 43.1169 158.931 43.126C160.79 46.5295 161.806 49.3635 162.34 51.2133C162.677 52.3752 161.797 53.5325 160.59 53.5325H149.714Z" fill="#D5BEFC"/>
<path d="M35.2237 89.2534C23.8331 89.2534 14.5977 98.4844 14.5977 109.875C14.5977 110.426 14.6204 110.964 14.6614 111.502C14.7389 111.506 14.8118 111.511 14.8893 111.511C15.4679 115.265 16.3518 118.668 18.3657 121.753C18.3748 121.776 18.3884 121.794 18.4067 121.817C22.1428 127.075 28.2846 130.501 35.2237 130.501C39.6433 130.501 43.7393 129.111 47.0973 126.738C47.5165 126.378 48.0632 125.995 48.332 125.794C48.3457 125.785 48.3639 125.772 48.3821 125.758C48.414 125.731 48.4505 125.703 48.4824 125.676C52.0818 122.382 53.8679 119.051 55.0844 114.34C55.2575 113.666 55.3259 112.299 55.5491 111.843C55.6083 111.72 55.6858 111.62 55.7769 111.538C55.7769 111.538 55.7815 111.538 55.7815 111.533C55.8225 110.991 55.8453 110.431 55.8453 109.875C55.8453 98.4844 46.6143 89.2534 35.2237 89.2534ZM35.2237 118.755C30.3212 118.755 26.3436 114.777 26.3436 109.875C26.3436 104.972 30.3212 100.999 35.2237 100.999C40.1263 100.999 44.0993 104.972 44.0993 109.875C44.0993 114.777 40.1263 118.755 35.2237 118.755Z" fill="#7225F5"/>
<path d="M48.5039 128.792C48.9778 128.387 49.5974 127.954 49.8981 127.726C49.447 128.1 48.9823 128.46 48.5039 128.792Z" fill="black"/>
<path d="M183.216 93.7C179.754 90.8386 175.316 89.1118 170.473 89.1118C161.378 89.1118 153.706 95.1853 151.282 103.5C150.762 105.277 150.484 107.155 150.484 109.105C150.484 116.326 154.316 122.646 160.052 126.163C163.082 128.022 166.654 129.093 170.473 129.093C174.063 129.093 177.425 128.145 180.332 126.491C186.383 123.06 190.465 116.554 190.465 109.105C190.465 102.904 187.64 97.3632 183.216 93.7ZM171.01 117.962C170.833 117.976 170.655 117.98 170.473 117.98C165.57 117.98 161.597 114.007 161.597 109.105C161.597 105.888 163.31 103.068 165.871 101.509H165.875C167.215 100.694 168.791 100.224 170.473 100.224C175.38 100.224 179.353 104.202 179.353 109.105C179.353 114.007 175.667 117.684 171.01 117.962Z" fill="#7225F5"/>
<path d="M158.653 42.6155C158.434 42.2328 158.215 41.8546 157.992 41.4719C158.097 41.6496 158.197 41.8182 158.288 41.9777C158.411 42.1918 158.534 42.406 158.653 42.6155Z" fill="white"/>
</svg>
