<svg width="215" height="130" viewBox="0 0 215 130" fill="none" xmlns="http://www.w3.org/2000/svg">
<g clip-path="url(#clip0_2142_3331)">
<path d="M36.8653 129.345C25.3409 129.345 15.9648 119.969 15.9648 108.445C15.9648 96.9205 25.3409 87.5444 36.8653 87.5444C48.3896 87.5444 57.7657 96.9205 57.7657 108.445C57.7657 119.969 48.3896 129.345 36.8653 129.345ZM36.8653 98.2085C31.2242 98.2085 26.634 102.799 26.634 108.44C26.634 114.081 31.2242 118.671 36.8653 118.671C42.5064 118.671 47.0966 114.081 47.0966 108.44C47.0966 102.799 42.5064 98.2085 36.8653 98.2085Z" fill="#7225F5"/>
<path d="M171.701 129.345C160.177 129.345 150.801 119.969 150.801 108.445C150.801 96.9205 160.177 87.5444 171.701 87.5444C183.226 87.5444 192.602 96.9205 192.602 108.445C192.602 119.969 183.226 129.345 171.701 129.345ZM171.701 98.2085C166.06 98.2085 161.47 102.799 161.47 108.44C161.47 114.081 166.06 118.671 171.701 118.671C177.342 118.671 181.932 114.081 181.932 108.44C181.932 102.799 177.342 98.2085 171.701 98.2085Z" fill="#7225F5"/>
<path d="M214.573 94.3549C214.383 92.7475 212.945 92.4899 212.755 91.5008C212.245 83.0675 213.414 73.8923 212.76 65.5517C211.915 54.8053 200.751 55.4132 194.198 49.6072C187.192 40.3187 181.438 29.7938 174.565 20.4692C170.351 14.7456 166.379 12.9116 159.188 12.4943C150.198 11.974 140.714 12.9116 131.667 12.4995C130.518 12.6386 129.684 13.2053 129.333 14.3181L129.22 83.9948C129.297 84.5615 128.952 85.6691 128.303 85.6691H122.466L123.512 82.1762V4.32375C123.476 2.3558 122.013 0.660895 120.014 0.557861H3.50316C1.59703 0.604227 0.0772755 1.85609 0 3.80343L0.0103034 82.4235C0.587294 87.4928 8.0418 85.0457 11.2925 85.6742C12.9359 85.9937 12.8638 91.4441 11.7871 92.1293C9.78308 93.3966 3.19921 90.8517 2.47282 93.9633C1.76703 96.9719 2.68919 101.737 2.40069 104.942C2.63767 106.003 3.85347 106.528 4.83229 106.657C6.14083 106.837 11.7407 106.884 12.6011 106.173C13.4665 105.462 13.4202 103.432 13.7241 102.366C20.5501 78.4258 52.501 77.6273 59.7546 101.031C60.1306 102.237 60.4449 105.127 60.8519 105.9C61.1146 106.394 61.9131 106.554 62.4283 106.657L146.133 106.616C148.92 106.379 148.606 102.587 149.379 100.254C156.787 77.8952 187.769 78.6061 194.775 101.696C195.579 104.354 194.719 106.41 198.083 106.693C201.328 106.966 207.31 106.971 210.555 106.693C212.425 106.533 214.249 105.73 214.543 103.674C214.805 101.825 214.795 96.2404 214.573 94.3549ZM181.489 51.4103H181.484C180.948 51.9512 180.206 52.2861 179.387 52.2861H143.104C141.466 52.2861 140.137 50.9569 140.137 49.3187V25.6003C140.137 23.962 141.466 22.6329 143.104 22.6329H164.947C165.983 22.6329 166.946 23.1738 167.482 24.0548L176.265 38.4795C177.631 40.6226 178.929 42.7503 180.011 44.6307L180.042 44.6873L181.922 47.7732C182.205 48.2368 182.355 48.7726 182.355 49.3187C182.355 49.4217 182.35 49.5248 182.339 49.6227V49.6381C182.417 50.4006 182.174 51.0033 181.489 51.4103Z" fill="#D5BEFC"/>
<path d="M182.355 49.3186C182.355 49.4217 182.35 49.5247 182.339 49.6226V49.638C182.262 50.3284 181.958 50.9466 181.489 51.4102H181.484C180.948 51.9511 180.207 52.286 179.388 52.286H143.104C141.466 52.286 140.137 50.9569 140.137 49.3186V25.6002C140.137 23.962 141.466 22.6328 143.104 22.6328H164.947C165.983 22.6328 166.946 23.1737 167.482 24.0547L176.266 38.4794L180.011 44.6306L180.042 44.6872L181.922 47.7731C182.206 48.2368 182.355 48.7725 182.355 49.3186Z" fill="#7225F5"/>
</g>
<defs>
<clipPath id="clip0_2142_3331">
<rect width="214.738" height="128.787" fill="white" transform="translate(0 0.557861)"/>
</clipPath>
</defs>
</svg>
