<svg width="209" height="108" viewBox="0 0 209 108" fill="none" xmlns="http://www.w3.org/2000/svg">
<g clip-path="url(#clip0_2140_3257)">
<path d="M35.6084 107.938C23.274 107.938 13.2383 97.9028 13.2383 85.5683C13.2383 73.2339 23.274 63.1982 35.6084 63.1982C47.9428 63.1982 57.9785 73.2339 57.9785 85.5683C57.9785 97.9028 47.9428 107.938 35.6084 107.938ZM35.6084 74.6194C29.5683 74.6194 24.6542 79.5335 24.6542 85.5735C24.6542 91.6136 29.5683 96.5277 35.6084 96.5277C41.6485 96.5277 46.5625 91.6136 46.5625 85.5735C46.5625 79.5335 41.6485 74.6194 35.6084 74.6194Z" fill="#7225F5"/>
<path d="M170.964 107.938C158.629 107.938 148.594 97.9028 148.594 85.5683C148.594 73.2339 158.629 63.1982 170.964 63.1982C183.298 63.1982 193.334 73.2339 193.334 85.5683C193.334 97.9028 183.298 107.938 170.964 107.938ZM170.964 74.6194C164.924 74.6194 160.01 79.5335 160.01 85.5735C160.01 91.6136 164.924 96.5277 170.964 96.5277C177.004 96.5277 181.918 91.6136 181.918 85.5735C181.918 79.5335 177.004 74.6194 170.964 74.6194Z" fill="#7225F5"/>
<path d="M145.796 78.9419H60.2539V87.8843H145.796V78.9419Z" fill="#7225F5"/>
<path d="M138.289 10.1606H41.7191C35.9393 10.1606 31.2539 14.8461 31.2539 20.6258C31.2539 26.4056 35.9393 31.091 41.7191 31.091H138.289C144.069 31.091 148.754 26.4056 148.754 20.6258C148.754 14.8461 144.069 10.1606 138.289 10.1606Z" fill="#7225F5"/>
<path d="M208.184 55.4871C207.172 42.7271 203.14 37.1593 190.956 33.4491C182.285 30.8027 173.204 29.5884 164.372 27.5802C151.047 19.3192 139.402 5.10636 123.456 1.98773C113.27 0.000311053 61.9244 0.571109 51.4528 0.90321C45.0132 1.10558 36.3215 1.20937 30.1413 2.82836C25.6009 4.02184 20.5208 11.9767 17.6097 15.7388C14.0396 20.3622 9.90393 25.4475 6.70746 30.2786C2.82084 36.163 5.25971 40.1586 4.41908 46.4166C4.10254 48.7724 2.55101 49.0578 1.72076 50.9311C1.44055 51.5589 1.13439 52.602 1.06693 53.2817C0.719267 56.7376 0.760779 63.8155 1.05656 67.3078C1.45612 71.9987 5.84607 76.2641 10.3139 77.2812L10.8899 77.4161C10.9625 77.4317 11.03 77.4161 11.087 77.3902C11.1078 77.4628 11.1234 77.5406 11.1441 77.6185C14.05 67.2403 23.9144 59.602 35.6469 59.602C47.3794 59.602 56.7146 66.8356 59.8955 76.7882C59.8851 76.8401 59.8799 76.892 59.8695 76.9439C59.8228 77.1515 59.9266 77.3486 60.0927 77.4472C60.1134 77.5043 60.129 77.5614 60.1497 77.6185C60.1601 77.5718 60.1705 77.5251 60.1809 77.4784C60.2276 77.4939 60.2691 77.5095 60.321 77.5095L146.226 77.4265C146.366 77.4265 146.486 77.3642 146.574 77.2708C146.574 77.276 146.574 77.2812 146.579 77.2916C146.579 77.2812 146.579 77.2656 146.579 77.2552C146.662 77.1618 146.698 77.0373 146.688 76.9076C149.698 66.8356 159.37 59.4671 170.848 59.4671C182.326 59.4671 192.315 67.3078 195.19 77.577C196.358 77.5873 197.629 77.6548 198.241 77.5925C209.559 76.4613 208.848 63.9089 208.178 55.4871H208.184ZM141.151 30.429H44.1726C38.75 30.429 34.3548 26.0495 34.3548 20.6476C34.3548 17.9493 35.4549 15.5053 37.2296 13.7358C39.0094 11.9663 41.4587 10.8714 44.1726 10.8714H110.883C112.378 10.8714 113.841 11.3021 115.118 12.0805L118.143 13.1754C127.042 16.403 135.215 21.3689 142.184 27.7878C143.206 28.727 142.537 30.429 141.151 30.429ZM170.962 46.9251C173.017 46.9251 175.005 47.169 176.914 47.636C175.01 47.1794 173.012 46.9355 170.962 46.9251Z" fill="#D5BEFC"/>
</g>
<defs>
<clipPath id="clip0_2140_3257">
<rect width="207.688" height="107.372" fill="white" transform="translate(0.816406 0.565918)"/>
</clipPath>
</defs>
</svg>
