<svg width="58" height="58" viewBox="0 0 58 58" fill="none" xmlns="http://www.w3.org/2000/svg">
<g clip-path="url(#clip0_230_31)">
<path d="M17.7024 54.4159C16.8969 54.6979 16.1614 54.5972 15.496 54.1138C14.8322 53.6305 14.5003 52.9861 14.5003 52.1805V36.8347C12.9698 35.143 11.7816 33.2097 10.9357 31.0347C10.0899 28.8597 9.66699 26.5437 9.66699 24.0868C9.66699 18.6895 11.5399 14.118 15.2857 10.3722C19.0316 6.62633 23.6031 4.75342 29.0003 4.75342C34.3975 4.75342 38.9691 6.62633 42.7149 10.3722C46.4607 14.118 48.3337 18.6895 48.3337 24.0868C48.3337 26.5437 47.9107 28.8597 47.0649 31.0347C46.2191 33.2097 45.0309 35.143 43.5003 36.8347V52.1805C43.5003 52.9861 43.1676 53.6305 42.5022 54.1138C41.8385 54.5972 41.1038 54.6979 40.2982 54.4159L29.0003 50.6701L17.7024 54.4159Z" fill="white"/>
<path d="M17.7024 54.4159C16.8969 54.6979 16.1614 54.5972 15.496 54.1138C14.8322 53.6305 14.5003 52.9861 14.5003 52.1805V36.8347C12.9698 35.143 11.7816 33.2097 10.9357 31.0347C10.0899 28.8597 9.66699 26.5437 9.66699 24.0868C9.66699 18.6895 11.5399 14.118 15.2857 10.3722C19.0316 6.62633 23.6031 4.75342 29.0003 4.75342C34.3975 4.75342 38.9691 6.62633 42.7149 10.3722C46.4607 14.118 48.3337 18.6895 48.3337 24.0868C48.3337 26.5437 47.9107 28.8597 47.0649 31.0347C46.2191 33.2097 45.0309 35.143 43.5003 36.8347V52.1805C43.5003 52.9861 43.1676 53.6305 42.5022 54.1138C41.8385 54.5972 41.1038 54.6979 40.2982 54.4159L29.0003 50.6701L17.7024 54.4159ZM29.0003 38.5868C33.0281 38.5868 36.4517 37.177 39.2712 34.3576C42.0906 31.5381 43.5003 28.1145 43.5003 24.0868C43.5003 20.059 42.0906 16.6354 39.2712 13.8159C36.4517 10.9965 33.0281 9.58675 29.0003 9.58675C24.9725 9.58675 21.5489 10.9965 18.7295 13.8159C15.91 16.6354 14.5003 20.059 14.5003 24.0868C14.5003 28.1145 15.91 31.5381 18.7295 34.3576C21.5489 37.177 24.9725 38.5868 29.0003 38.5868Z" fill="url(#paint0_linear_230_31)"/>
<path d="M22.2169 25.8452C22.0361 25.8347 21.9378 25.6251 22.0434 25.4751L31.5253 12.0183C31.6668 11.8175 31.9775 11.9483 31.9386 12.1923L30.8015 19.323C30.7799 19.4587 30.8772 19.5841 31.0118 19.5939L34.7864 19.8696C34.9661 19.8827 35.0617 20.0918 34.9559 20.2404L25.2872 33.8223C25.1425 34.0256 24.8279 33.8855 24.876 33.6393L26.3014 26.3501C26.3287 26.2106 26.2286 26.0788 26.0892 26.0707L22.2169 25.8452Z" fill="#FBAD18"/>
</g>
<defs>
<linearGradient id="paint0_linear_230_31" x1="9.66699" y1="52.9399" x2="57.1308" y2="18.514" gradientUnits="userSpaceOnUse">
<stop stop-color="#7C1CFF"/>
<stop offset="0.61" stop-color="#7C1CFF"/>
<stop offset="0.853957" stop-color="#C499FF"/>
<stop offset="1" stop-color="white"/>
</linearGradient>
<clipPath id="clip0_230_31">
<rect width="57.59" height="57.59" fill="white"/>
</clipPath>
</defs>
</svg>
