<svg width="170" height="36" viewBox="0 0 170 36" fill="none" xmlns="http://www.w3.org/2000/svg">
<g clip-path="url(#clip0_1962_8583)">
<path d="M0.919922 8.10991L14.315 14.2581C14.8354 14.3738 16.5507 13.5643 17.1482 13.2752C17.9191 12.909 19.4417 12.5428 18.5552 11.5599L5.83466 5.6429L16.994 0.612523C17.6878 0.419788 18.4973 0.400514 19.1719 0.689617C24.4143 3.73483 31.3335 5.60435 36.4409 8.64956C37.5203 9.28559 37.6552 10.3649 36.865 11.3286C33.1837 13.3523 29.1941 14.7978 25.4165 16.6095C25.1274 16.7444 22.6411 17.9008 22.8146 18.1321L35.9977 24.0491C37.9443 25.1477 37.7901 26.5161 35.9206 27.5569C30.948 30.313 24.8769 32.1439 19.8465 34.9193C18.9021 35.3819 17.8035 35.459 16.782 35.2277L6.06594 30.4093L6.35504 29.9082L18.5744 24.2611C18.8635 24.0491 18.8828 23.76 18.6901 23.4709C18.4588 23.1047 14.951 21.5243 14.2764 21.7363L0.919922 27.7496V20.7148C1.5174 20.2137 6.43214 18.3249 6.50923 18.0357C6.62487 17.5925 6.29722 17.7274 6.06594 17.6117C4.3506 16.8022 2.55817 16.1277 0.939195 15.1447V8.10991H0.919922Z" fill="black"/>
<path d="M72.4813 9.22778C74.0232 9.3627 76.5288 10.0758 77.5117 11.3479C79.4583 13.892 77.743 17.0528 74.8327 17.7081L76.8372 18.9223C78.7838 20.522 78.8223 23.4131 76.9528 25.0706C75.1796 26.6317 71.8646 26.7474 69.571 26.8437C64.637 27.075 59.6452 26.7088 54.7305 26.6317V9.22778H72.4813ZM71.1515 13.0247H60.5511V19.0573L62.1122 16.5517C62.2664 16.3782 62.9988 15.8 63.1723 15.7615C65.0611 15.2218 69.9758 16.3397 71.4791 15.3568C72.4813 14.7015 72.2115 13.2559 71.1515 13.0247ZM70.2649 19.2693H60.5511V26.4197L62.1122 23.8371C63.4421 22.3916 68.2412 23.2974 70.2649 23.0661C72.7319 22.777 72.7319 19.674 70.2649 19.2693Z" fill="black"/>
<path d="M123.519 26.8631L133.831 9.26643C134.968 9.3628 140.923 8.93878 141.405 9.38207C143.332 12.8898 145.53 16.2434 147.592 19.6741C148.729 21.5629 150.599 24.2034 151.447 26.0922C151.562 26.362 151.755 26.5355 151.659 26.8824C149.423 26.9017 147.206 26.9402 144.99 26.6318C144.643 25.938 143.699 23.6637 143.063 23.5481C141.559 23.259 137.878 23.5095 136.124 23.5481C135.392 23.5481 134.486 23.5674 133.792 23.7794C133.541 23.5095 135.719 19.9825 136.355 19.9825H141.155L137.994 14.1041C137.319 13.1789 137.358 14.1041 137.03 14.6437C134.679 18.4406 132.616 22.4495 130.4 26.3235C130.284 26.4969 129.783 26.9209 129.648 26.9209H123.5L123.519 26.8631Z" fill="black"/>
<path d="M95.3774 19.944L92.0431 13.8343L91.5805 13.6994C89.4026 18.0937 86.7814 22.2953 84.3723 26.5933C83.8326 27.0366 78.0891 26.9981 77.7422 26.6511L87.9186 9.69048C88.0728 9.42066 88.2848 9.30501 88.5932 9.24719C89.5568 9.05446 94.009 9.09301 95.069 9.24719C95.3196 9.28574 95.5509 9.24719 95.7243 9.47848L105.881 26.3428C105.959 26.8439 105.804 26.6126 105.554 26.6704C103.626 27.1523 101.526 26.8246 99.5598 26.8632C99.0201 26.4584 97.8059 23.5481 97.2855 23.5481H88.5739C88.5739 23.5481 88.0342 23.9721 88.0149 23.4325C88.0149 22.9699 90.0001 19.9632 90.5783 19.9632H95.3774V19.944Z" fill="black"/>
<path d="M124.193 9.22777V22.0639C124.193 22.3723 123.75 23.9913 123.577 24.3382C122.998 25.456 121.63 26.3041 120.416 26.5354C118.546 26.9016 117.274 26.5739 115.597 26.6125C114.036 26.651 112.572 26.9594 110.895 26.863C110.355 26.8245 108.659 26.6895 108.274 26.5932C107.233 26.2848 106.269 23.9142 105.652 23.0661H116.715C117.082 23.0661 118.392 22.2759 118.392 21.8326V9.2085H124.193V9.22777Z" fill="black"/>
<path d="M169.736 9.22803V23.4133C169.736 24.8395 167.616 26.208 166.363 26.5163C164.416 26.9789 161.602 26.9018 159.578 26.8825C158.037 26.8825 154.51 27.0753 153.353 26.1887C152.467 25.4756 152.158 23.9722 151.426 23.1049H162.489C162.797 23.1049 164.166 22.0834 164.166 21.8714V9.2473H169.755L169.736 9.22803Z" fill="black"/>
</g>
<defs>
<clipPath id="clip0_1962_8583">
<rect width="168.816" height="34.9043" fill="white" transform="translate(0.919922 0.477539)"/>
</clipPath>
</defs>
</svg>
