<svg width="73" height="72" viewBox="0 0 73 72" fill="none" xmlns="http://www.w3.org/2000/svg">
<g clip-path="url(#clip0_1956_3050)">
<path d="M36.666 71.9999C56.0546 71.9999 69.9043 65.1291 69.9043 49.8445C69.9043 33.2228 61.5935 24.8039 44.9769 16.4931L52.1615 5.26106C52.442 4.71907 52.5804 4.11473 52.5637 3.50466C52.5469 2.89459 52.3755 2.29876 52.0656 1.77299C51.7557 1.24723 51.3174 0.808748 50.7918 0.498632C50.2661 0.188515 49.6704 0.016917 49.0603 -8.48742e-05H25.5729C24.9214 -0.0124411 24.2788 0.152239 23.7136 0.476397C23.1484 0.800554 22.6818 1.27203 22.3634 1.84056C22.0451 2.40909 21.8871 3.05335 21.9062 3.70464C21.9252 4.35594 22.1207 4.98984 22.4717 5.53877L28.3552 16.4931C11.7437 24.9171 3.42773 33.3359 3.42773 49.9525C3.42773 65.1291 17.2774 71.9999 36.666 71.9999Z" fill="#D0922F"/>
<path fill-rule="evenodd" clip-rule="evenodd" d="M34.8206 33.4285H26.1652C25.4832 33.4285 24.8291 33.1576 24.3469 32.6753C23.8647 32.1931 23.5938 31.5391 23.5938 30.8571C23.5938 30.1751 23.8647 29.521 24.3469 29.0388C24.8291 28.5566 25.4832 28.2856 26.1652 28.2856H35.1086H35.2217H47.1686C47.8506 28.2856 48.5046 28.5566 48.9869 29.0388C49.4691 29.521 49.74 30.1751 49.74 30.8571C49.74 31.5391 49.4691 32.1931 48.9869 32.6753C48.5046 33.1576 47.8506 33.4285 47.1686 33.4285H42.5812C43.0595 34.3336 43.4143 35.3622 43.5995 36.5348H47.1686C47.5063 36.5348 47.8407 36.6013 48.1526 36.7305C48.4646 36.8598 48.7481 37.0492 48.9869 37.2879C49.2257 37.5267 49.4151 37.8102 49.5443 38.1222C49.6735 38.4342 49.74 38.7685 49.74 39.1062C49.74 39.4439 49.6735 39.7783 49.5443 40.0903C49.4151 40.4022 49.2257 40.6857 48.9869 40.9245C48.7481 41.1633 48.4646 41.3527 48.1526 41.4819C47.8407 41.6111 47.5063 41.6776 47.1686 41.6776H43.2497C42.8126 43.0662 42.108 44.2645 41.2132 45.2674C39.7217 46.9491 37.8035 47.9879 36.0703 48.6411C35.9763 48.6762 35.882 48.7105 35.7875 48.7439C38.148 50.0656 41.2235 51.4696 44.7875 52.3645C45.1218 52.4397 45.4377 52.581 45.7167 52.7801C45.9956 52.9792 46.232 53.232 46.4118 53.5237C46.5916 53.8154 46.7114 54.1401 46.7639 54.4788C46.8165 54.8174 46.8008 55.1631 46.7179 55.4956C46.6349 55.8282 46.4864 56.1407 46.2809 56.415C46.0754 56.6892 45.8172 56.9197 45.5214 57.0927C45.2256 57.2658 44.8982 57.3779 44.5584 57.4226C44.2187 57.4674 43.8734 57.4437 43.5429 57.3531C37.7147 55.8592 32.2712 53.1419 27.5743 49.3816L27.5075 49.3199L27.4817 49.3045L27.4766 49.2942C27.0819 48.9504 26.7964 48.4943 26.6679 47.9868C26.5393 47.4794 26.5687 46.9449 26.7521 46.4546C26.9354 45.9643 27.2641 45.5416 27.694 45.2431C28.124 44.9446 28.6349 44.7844 29.1583 44.7839H29.1686H29.2355C29.3023 44.7839 29.4052 44.7839 29.544 44.7736C31.1534 44.683 32.7415 44.3626 34.26 43.8222C35.5102 43.3964 36.6308 42.6582 37.5155 41.6776H26.1652C25.4832 41.6776 24.8291 41.4067 24.3469 40.9245C23.8647 40.4423 23.5938 39.7882 23.5938 39.1062C23.5938 38.4242 23.8647 37.7702 24.3469 37.2879C24.8291 36.8057 25.4832 36.5348 26.1652 36.5348H38.3332C38.1123 35.8364 37.7115 35.2085 37.1709 34.7142C36.4934 34.1153 35.6903 33.676 34.8206 33.4285Z" fill="white"/>
</g>
<defs>
<clipPath id="clip0_1956_3050">
<rect width="72" height="72" fill="white" transform="translate(0.666016)"/>
</clipPath>
</defs>
</svg>
