<svg width="104" height="104" viewBox="0 0 104 104" fill="none" xmlns="http://www.w3.org/2000/svg">
<g clip-path="url(#clip0_1832_4233)">
<path d="M60.3098 7.94525C43.1033 7.94525 28.9807 21.3966 27.9014 38.34H23.1938C21.6428 38.34 20.8718 40.2085 21.9603 41.297L35.8742 55.2018L42.9128 48.1632L49.7065 41.3695C50.795 40.2811 50.024 38.4126 48.4729 38.4126H41.3346V42.585H42.5681L41.4978 43.6553L35.8651 49.297L29.0805 42.5215H31.9921V40.9977C31.9921 25.1608 44.9446 11.8636 60.7814 12.1358C76.1557 12.3988 88.5912 24.9885 88.5912 40.4262C88.5912 41.0249 88.573 41.6326 88.5367 42.2312C88.4642 43.4285 89.4256 44.4262 90.6229 44.4262C91.7204 44.4262 92.6365 43.5736 92.7091 42.4761C92.7544 41.7958 92.7817 41.1065 92.7817 40.4262C92.7907 22.5213 78.2237 7.94525 60.3098 7.94525Z" fill="#D5BEFC"/>
<path d="M78.3501 40.4262C78.3501 50.6757 70.0417 58.9841 59.7922 58.9841C52.3001 58.9841 45.851 54.5578 42.9122 48.1632L49.7059 41.3695C50.7944 40.2811 50.0234 38.4126 48.4724 38.4126H41.334C42.3317 29.1064 50.2048 21.8682 59.7831 21.8682C70.0326 21.8682 78.3411 30.1857 78.3411 40.4353L78.3501 40.4262Z" fill="#7225F5"/>
<path d="M66.8291 32.5983C67.0811 32.7044 67.1519 32.8611 67.1756 33.1095C67.1992 33.3724 67.2097 34.3226 67.0994 34.5252C67.0758 34.5686 66.9131 34.7157 66.8868 34.7157H63.4875C63.6555 35.0317 63.8812 35.3187 64.0308 35.6442C64.17 35.9457 64.2539 36.2592 64.3694 36.5703L66.8107 36.5848C67.0286 36.6137 67.1572 36.7609 67.1756 36.9538C67.2097 37.2987 67.2097 37.9884 67.1756 38.3333C67.1519 38.56 67.0076 38.6613 66.7713 38.7023H64.3694C64.0964 40.8125 62.343 42.2933 60.1905 42.8552C59.7442 42.971 59.2822 43.0072 58.8517 43.1084C58.7992 43.1205 58.7441 43.0867 58.7625 43.1663C59.6891 44.0683 60.5895 44.9968 61.4715 45.9374C62.6212 47.1649 63.8864 48.4865 64.9469 49.7671C65.0257 49.8612 65.2252 50.0638 65.2488 50.1627C65.3039 50.3869 65.1149 50.6546 64.8524 50.6667C63.9626 50.6088 62.9598 50.7415 62.0831 50.6667C61.986 50.6595 61.8967 50.6498 61.8153 50.5944C59.8938 48.5251 57.9933 46.439 56.0141 44.418C55.791 44.1913 54.7042 43.2049 54.657 43.0168C54.6018 42.7901 54.6123 41.4878 54.6491 41.2225C54.6806 40.9765 54.8801 40.8776 55.1321 40.8535C55.7778 40.7908 56.5417 40.8849 57.2085 40.8535C58.7415 40.7812 60.6603 40.253 61.0305 38.6999H54.9772C54.9457 38.6999 54.7593 38.5793 54.7278 38.5407C54.6622 38.4635 54.6596 38.4249 54.6491 38.3309C54.6176 38.0294 54.6045 37.166 54.6543 36.8839C54.6701 36.7922 54.8565 36.5824 54.9405 36.5824H60.8388C60.3532 35.5574 58.9042 35.1981 57.7833 35.1354C56.9486 35.0895 56.0298 35.2005 55.2082 35.1354C54.951 35.1161 54.6858 35.0268 54.6517 34.764C54.6071 34.4119 54.5992 33.2711 54.6517 32.9263C54.6753 32.7574 54.8171 32.6875 54.9562 32.5983H66.8264H66.8291Z" fill="white"/>
<path d="M91.8007 58.0228C85.8868 64.2904 80.9435 72.3902 75.0749 78.5762C74.2858 79.4107 73.6781 80.0365 72.4627 80.1998C63.9637 80.7984 54.5306 79.4742 46.1405 80.227C43.0384 80.5082 41.0792 82.2406 38.8751 84.2089L23.9453 69.2609C26.9567 62.304 34.6483 58.3221 42.1314 59.0658C45.0974 59.3652 47.9364 61.5511 50.6303 61.8595C55.9818 62.4763 62.3492 61.406 67.7824 61.8777C68.5171 61.9412 69.1883 62.1044 69.8595 62.3856C73.7144 64.0001 72.7439 69.7507 68.7257 70.1317C63.8549 70.6033 57.9954 69.5603 53.1882 70.1135C51.3922 70.3222 51.3922 71.8006 53.1882 72.0002C56.127 72.3358 66.9388 72.3358 69.5964 71.7009C71.9275 71.1385 73.8414 68.8618 74.0046 66.4673C74.0591 65.6056 73.7416 64.9525 73.7597 64.3448C73.7869 63.3017 76.3992 61.4786 77.1793 60.7076C79.1929 58.7302 81.2337 56.7801 83.3018 54.8391C84.1181 54.0681 85.1521 52.5715 85.9231 52.0454C90.0683 49.2336 94.9118 54.059 91.7916 58.0409L91.8007 58.0228Z" fill="#D5BEFC"/>
<path d="M17.5067 70.491L12.2154 75.7823C10.8764 77.1212 10.8764 79.2921 12.2154 80.631L26.6398 95.0555C27.9788 96.3944 30.1497 96.3944 31.4886 95.0555L36.7799 89.7642C38.1189 88.4252 38.1189 86.2544 36.7799 84.9154L22.3555 70.491C21.0165 69.152 18.8457 69.152 17.5067 70.491Z" fill="#7225F5"/>
<path d="M19.9374 80.5626C21.5003 80.5626 22.7673 79.2956 22.7673 77.7327C22.7673 76.1697 21.5003 74.9027 19.9374 74.9027C18.3744 74.9027 17.1074 76.1697 17.1074 77.7327C17.1074 79.2956 18.3744 80.5626 19.9374 80.5626Z" fill="white"/>
</g>
<defs>
<clipPath id="clip0_1832_4233">
<rect width="81.5788" height="88.1095" fill="white" transform="translate(11.2109 7.94525)"/>
</clipPath>
</defs>
</svg>
