<svg width="48" height="48" viewBox="0 0 48 48" fill="none" xmlns="http://www.w3.org/2000/svg">
<rect width="48" height="48" rx="8" fill="#F0B142"/>
<path fill-rule="evenodd" clip-rule="evenodd" d="M13.5 16.5C13.5 14.8431 14.8431 13.5 16.5 13.5H17.8716C18.732 13.5 19.482 14.0856 19.6906 14.9202L20.7964 19.3434C20.9794 20.0753 20.7059 20.8455 20.1024 21.2982L18.8088 22.2684C18.6745 22.3691 18.6453 22.5167 18.683 22.6197C19.8185 25.7195 22.2805 28.1815 25.3803 29.317C25.4833 29.3547 25.6309 29.3255 25.7316 29.1912L26.7018 27.8976C27.1545 27.2941 27.9247 27.0206 28.6566 27.2036L33.0798 28.3094C33.9144 28.518 34.5 29.268 34.5 30.1284V31.5C34.5 33.1569 33.1569 34.5 31.5 34.5H29.25C20.5515 34.5 13.5 27.4485 13.5 18.75V16.5Z" fill="#350D68"/>
</svg>
