<svg width="58" height="58" viewBox="0 0 58 58" fill="none" xmlns="http://www.w3.org/2000/svg">
<path d="M51.1122 38.7874L44.8288 35.1624C45.1913 34.1555 45.4636 33.1381 45.6457 32.1102C45.8261 31.0839 45.9163 30.0472 45.9163 28.9999C45.9163 24.7305 44.5469 21.0048 41.808 17.8229C39.0691 14.6409 35.6052 12.768 31.4163 12.2041V4.9541C37.6191 5.55827 42.7948 8.15619 46.9434 12.7479C51.092 17.3395 53.1663 22.7569 53.1663 28.9999C53.1663 30.6916 53.0149 32.3631 52.712 34.0145C52.4107 35.6659 51.8775 37.2569 51.1122 38.7874ZM28.9997 53.1666C25.6566 53.1666 22.515 52.5318 19.5747 51.2623C16.6344 49.9943 14.0768 48.2729 11.9018 46.0979C9.72676 43.9229 8.00529 41.3652 6.73734 38.4249C5.46779 35.4847 4.83301 32.343 4.83301 28.9999C4.83301 22.7569 6.90731 17.3395 11.0559 12.7479C15.2045 8.15619 20.3802 5.55827 26.583 4.9541V12.2041C22.3941 12.768 18.9302 14.6409 16.1913 17.8229C13.4525 21.0048 12.083 24.7305 12.083 28.9999C12.083 33.7124 13.7247 37.7096 17.0082 40.9914C20.29 44.2749 24.2872 45.9166 28.9997 45.9166C31.5775 45.9166 34.0247 45.3729 36.3415 44.2854C38.6567 43.1979 40.64 41.6472 42.2913 39.6333L48.5747 43.2583C46.2788 46.3999 43.4191 48.8367 39.9955 50.5687C36.5719 52.3006 32.9066 53.1666 28.9997 53.1666Z" fill="#FBAD18"/>
<path d="M28.9997 53.1666C25.6566 53.1666 22.515 52.5318 19.5747 51.2623C16.6344 49.9943 14.0768 48.2729 11.9018 46.0979C9.72676 43.9229 8.00529 41.3652 6.73734 38.4249C5.46779 35.4847 4.83301 32.343 4.83301 28.9999C4.83301 22.7569 6.90731 17.3395 11.0559 12.7479C15.2045 8.15619 20.3802 5.55827 26.583 4.9541V12.2041C22.3941 12.768 18.9302 14.6409 16.1913 17.8229C13.4525 21.0048 12.083 24.7305 12.083 28.9999C12.083 33.7124 13.7247 37.7096 17.0082 40.9914C20.29 44.2749 24.2872 45.9166 28.9997 45.9166C31.5775 45.9166 34.0247 45.3729 36.3415 44.2854C38.6567 43.1979 40.64 41.6472 42.2913 39.6333L48.5747 43.2583C46.2788 46.3999 43.4191 48.8367 39.9955 50.5687C36.5719 52.3006 32.9066 53.1666 28.9997 53.1666Z" fill="url(#paint0_linear_230_15)"/>
<defs>
<linearGradient id="paint0_linear_230_15" x1="4.83301" y1="51.5874" x2="52.5052" y2="11.1693" gradientUnits="userSpaceOnUse">
<stop stop-color="#7C1CFF"/>
<stop offset="0.61" stop-color="#7C1CFF"/>
<stop offset="0.853957" stop-color="#C499FF"/>
<stop offset="1" stop-color="white"/>
</linearGradient>
</defs>
</svg>
