<svg width="72" height="46" viewBox="0 0 72 46" fill="none" xmlns="http://www.w3.org/2000/svg">
<path d="M71.9982 36.1589C71.3408 38.0903 70.1683 38.9685 68.1404 39.1157C67.5668 39.1563 64.7267 39.2096 64.3612 39.0903C64.0693 38.9939 64.0439 37.5573 63.9475 37.1132C62.0566 28.3112 49.7623 28.3873 47.8714 36.6919C47.7268 37.3315 47.8156 38.933 47.3105 39.0802L31.1786 39.1106C30.5746 38.9964 30.7472 37.7122 30.6533 37.2477C29.2751 30.367 20.765 27.9889 16.2117 33.4152C14.798 35.1005 14.4706 36.8594 14.1635 38.9837C11.8463 39.4482 8.89704 38.9634 8.24476 36.3315C7.86659 34.801 7.90212 29.6361 8.05948 27.933C8.161 26.8214 8.59247 26.5523 9.67622 26.4584C13.8792 26.0853 18.5721 26.8011 22.8259 26.4C25.8183 25.8341 26.2472 21.1209 23.8513 19.6006C23.2624 19.2275 22.3259 19.0625 21.6305 19.0092C17.5061 18.6996 13.0062 19.2554 8.8412 19.0092C7.76761 18.8062 7.80821 16.3798 8.70161 16.2047H27.6736C32.0492 16.3544 32.6659 9.78846 28.6177 8.78847L9.25491 8.76055C7.66354 8.86968 7.9808 5.98899 8.06202 4.88494C8.27522 1.94079 10.0798 1.17937 12.7701 0.879883L47.6075 0.900187C51.8765 1.49663 50.4044 6.2098 50.6379 9.25039C50.7014 10.0778 50.7039 10.2428 51.5516 10.3062C53.9831 10.4839 56.0643 9.79608 58.3282 11.1159C62.0389 13.2783 62.4424 19.8874 65.5414 21.4686C67.45 22.4407 70.3891 22.1996 71.3688 24.3518L72.0007 27.0219V36.1538L71.9982 36.1589ZM55.0668 12.8341C53.9805 12.6641 52.0465 12.8341 50.8511 12.8341C50.8359 12.8341 50.6405 13.0296 50.6405 13.0448V21.6158C50.6405 22.032 51.379 22.0879 51.6887 22.1133C54.2369 22.3112 58.412 22.2909 60.9729 22.1133C61.2851 22.0904 61.5719 21.9914 61.8815 21.9661C61.9145 21.8036 61.8637 21.6945 61.8054 21.5524C61.3485 20.3899 58.6861 15.1691 57.9526 14.4458C57.4374 13.9382 55.7572 12.9433 55.0668 12.8341Z" fill="#D5BEFC"/>
<path d="M5.7865 10.3418L27.8067 10.3063C30.2051 10.2022 30.3193 14.2758 28.2331 14.522H5.74843C4.22052 14.3443 4.12661 13.0677 4.26366 11.7707C4.35757 10.89 4.93625 10.489 5.78396 10.3418H5.7865Z" fill="#7225F5"/>
<path d="M55.2463 32.405C63.1168 31.6411 64.7945 43.1791 57.2767 44.8339C48.6093 46.74 46.5205 33.2528 55.2463 32.405ZM55.7894 35.9304C52.094 36.0395 52.292 41.9481 56.457 41.3441C59.5356 40.8999 59.2184 35.8289 55.7894 35.9304Z" fill="#7225F5"/>
<path d="M21.805 32.4024C29.6958 31.4837 31.5156 43.174 23.9776 44.8338C15.3101 46.7399 13.2162 33.4024 21.805 32.4024ZM22.4903 35.9278C18.6857 36.0014 19.0157 42.0191 23.1629 41.3465C26.1197 40.8669 25.9395 35.8618 22.4903 35.9278Z" fill="#7225F5"/>
<path d="M0.527193 21.1717C0.694704 21.0042 0.991657 20.9052 1.20739 20.7986C8.22512 20.5854 15.286 20.7529 22.3189 20.7123C23.7606 20.9356 23.8722 22.5346 23.6565 23.7173C23.522 24.461 22.588 24.8823 21.9052 24.9178L1.68708 24.9077C-0.0717886 24.8823 -0.449959 22.1514 0.527193 21.1742V21.1717Z" fill="#7225F5"/>
</svg>
