<svg width="58" height="58" viewBox="0 0 58 58" fill="none" xmlns="http://www.w3.org/2000/svg">
<path d="M8.83301 43.6665V30.8332C8.83301 29.8248 9.19234 28.9613 9.91101 28.2427C10.6285 27.5252 11.4913 27.1665 12.4997 27.1665C13.508 27.1665 14.3709 27.5252 15.0883 28.2427C15.807 28.9613 16.1663 29.8248 16.1663 30.8332V43.6665C16.1663 44.6748 15.807 45.5383 15.0883 46.257C14.3709 46.9744 13.508 47.3332 12.4997 47.3332C11.4913 47.3332 10.6285 46.9744 9.91101 46.257C9.19234 45.5383 8.83301 44.6748 8.83301 43.6665ZM31.5205 47.0123L19.833 43.7123V27.1665H22.7663C22.9802 27.1665 23.1941 27.1891 23.408 27.2343C23.6219 27.2808 23.8358 27.3346 24.0497 27.3957L36.7455 32.1165C37.1733 32.2693 37.5173 32.5443 37.7777 32.9415C38.0368 33.3387 38.1663 33.7512 38.1663 34.179C38.1663 34.8207 37.9451 35.3401 37.5027 35.7373C37.059 36.1346 36.5469 36.3332 35.9663 36.3332H31.1538C31.0011 36.3332 30.8868 36.3258 30.811 36.3112C30.734 36.2953 30.6344 36.2568 30.5122 36.1957L28.4497 35.4165C28.2052 35.3248 27.9608 35.3401 27.7163 35.4623C27.4719 35.5846 27.3191 35.7526 27.258 35.9665C27.1969 36.2109 27.2122 36.4401 27.3038 36.654C27.3955 36.8679 27.5636 37.0207 27.808 37.1123L30.5122 38.0748C30.5733 38.1054 30.665 38.1286 30.7872 38.1445C30.9094 38.1592 31.0163 38.1665 31.108 38.1665H43.6663C44.6441 38.1665 45.4997 38.5179 46.233 39.2207C46.9663 39.9235 47.333 40.7943 47.333 41.8332L33.8122 46.9207C33.5066 47.0429 33.132 47.1113 32.6883 47.126C32.2459 47.1419 31.8566 47.104 31.5205 47.0123Z" fill="url(#paint0_linear_230_58)"/>
<path d="M45.5285 20.0771C45.5735 19.7333 45.596 19.3781 45.596 19C45.596 18.6333 45.5735 18.2667 45.5172 17.9229L47.7999 16.1125C48.0022 15.9521 48.0585 15.6427 47.9348 15.4135L45.7759 11.6094C45.6409 11.3573 45.3598 11.2771 45.1124 11.3573L42.425 12.4573C41.8628 12.0219 41.2669 11.6552 40.6034 11.3802L40.1986 8.46979C40.1537 8.19479 39.9288 8 39.6589 8H35.3411C35.0712 8 34.8576 8.19479 34.8126 8.46979L34.4078 11.3802C33.7444 11.6552 33.1372 12.0333 32.5862 12.4573L29.8988 11.3573C29.6514 11.2656 29.3703 11.3573 29.2354 11.6094L27.0877 15.4135C26.9528 15.6542 26.9978 15.9521 27.2226 16.1125L29.5052 17.9229C29.449 18.2667 29.404 18.6448 29.404 19C29.404 19.3552 29.4265 19.7333 29.4828 20.0771L27.2002 21.8875C26.9978 22.0479 26.9415 22.3573 27.0652 22.5865L29.2241 26.3906C29.3591 26.6427 29.6402 26.7229 29.8876 26.6427L32.575 25.5427C33.1372 25.9781 33.7331 26.3448 34.3966 26.6198L34.8013 29.5302C34.8576 29.8052 35.0712 30 35.3411 30H39.6589C39.9288 30 40.1537 29.8052 40.1874 29.5302L40.5922 26.6198C41.2556 26.3448 41.8628 25.9781 42.4138 25.5427L45.1012 26.6427C45.3486 26.7344 45.6297 26.6427 45.7646 26.3906L47.9235 22.5865C48.0585 22.3344 48.0022 22.0479 47.7886 21.8875L45.5285 20.0771Z" fill="white"/>
<path d="M45.5285 20.0771C45.5735 19.7333 45.596 19.3781 45.596 19C45.596 18.6333 45.5735 18.2667 45.5172 17.9229L47.7998 16.1125C48.0022 15.9521 48.0585 15.6427 47.9348 15.4135L45.7759 11.6094C45.6409 11.3573 45.3598 11.2771 45.1124 11.3573L42.425 12.4573C41.8628 12.0219 41.2669 11.6552 40.6034 11.3802L40.1986 8.46979C40.1537 8.19479 39.9288 8 39.6589 8H35.3411C35.0712 8 34.8576 8.19479 34.8126 8.46979L34.4078 11.3802C33.7444 11.6552 33.1372 12.0333 32.5862 12.4573L29.8988 11.3573C29.6514 11.2656 29.3703 11.3573 29.2354 11.6094L27.0877 15.4135C26.9528 15.6542 26.9978 15.9521 27.2226 16.1125L29.5052 17.9229C29.449 18.2667 29.404 18.6448 29.404 19C29.404 19.3552 29.4265 19.7333 29.4828 20.0771L27.2002 21.8875C26.9978 22.0479 26.9415 22.3573 27.0652 22.5865L29.2241 26.3906C29.3591 26.6427 29.6402 26.7229 29.8876 26.6427L32.575 25.5427C33.1372 25.9781 33.7331 26.3448 34.3966 26.6198L34.8013 29.5302C34.8576 29.8052 35.0712 30 35.3411 30H39.6589C39.9288 30 40.1537 29.8052 40.1874 29.5302L40.5922 26.6198C41.2556 26.3448 41.8628 25.9781 42.4138 25.5427L45.1012 26.6427C45.3486 26.7344 45.6297 26.6427 45.7646 26.3906L47.9235 22.5865C48.0585 22.3344 48.0022 22.0479 47.7886 21.8875L45.5285 20.0771ZM37.5 23.125C35.2736 23.125 33.452 21.2687 33.452 19C33.452 16.7312 35.2736 14.875 37.5 14.875C39.7264 14.875 41.548 16.7312 41.548 19C41.548 21.2687 39.7264 23.125 37.5 23.125Z" fill="#FBAD18"/>
<defs>
<linearGradient id="paint0_linear_230_58" x1="8.83301" y1="46.6726" x2="26.0755" y2="15.9116" gradientUnits="userSpaceOnUse">
<stop stop-color="#7C1CFF"/>
<stop offset="0.61" stop-color="#7C1CFF"/>
<stop offset="0.853957" stop-color="#C499FF"/>
<stop offset="1" stop-color="white"/>
</linearGradient>
</defs>
</svg>
