<svg width="69" height="44" viewBox="0 0 69 44" fill="none" xmlns="http://www.w3.org/2000/svg">
<path d="M45.2766 0.580611C29.9136 1.77952 21.0717 19.0552 28.6969 32.4167C36.9177 46.8233 58.0485 46.6005 65.9202 32.0026C74.0483 16.9295 62.1973 -0.740553 45.2766 0.580611ZM46.1343 38.5394C46.1343 37.867 46.6687 37.3267 47.3391 37.2991C53.4914 37.0526 59.0995 33.2252 61.3395 27.4239C65.2675 17.2549 57.8256 6.74078 47.3332 6.34641C46.6648 6.32077 46.1343 5.77653 46.1343 5.10806V5.09229C46.1343 4.39621 46.7081 3.82831 47.4042 3.85C55.4456 4.09648 62.7356 9.84848 64.4472 17.8129C66.8864 29.1651 58.709 39.34 47.422 39.7797C46.72 39.8073 46.1363 39.2414 46.1363 38.5374L46.1343 38.5394Z" fill="#D5BEFC"/>
<path d="M23.544 21.0857C23.544 20.1944 22.8223 19.4727 21.931 19.4727H2.46848C2.42116 19.4727 1.71719 19.7921 1.61071 19.8591C0.476875 20.571 0.254052 22.3063 1.0921 23.3376C1.27549 23.5643 2.23383 24.1717 2.46848 24.1717H21.931C22.8223 24.1717 23.544 23.4499 23.544 22.5587V21.0857Z" fill="#7225F5"/>
<path d="M24.1715 29.001L12.2061 29.0739C10.2559 29.7089 9.94824 32.3985 11.786 33.3707C11.9142 33.4377 12.6182 33.7079 12.6931 33.7079H25.0075C25.6918 33.7079 26.1591 33.0138 25.9008 32.3788L24.7433 29.5472C24.6388 29.2928 24.4298 29.0937 24.1695 29.003L24.1715 29.001Z" fill="#7225F5"/>
<path d="M12.9658 14.6424C16.5349 14.9579 20.5536 14.39 24.174 14.6444C24.4343 14.5537 24.6433 14.3545 24.7478 14.1001L25.9053 11.2685C26.1636 10.6336 25.6983 9.93945 25.012 9.93945H12.8356C12.7942 9.93945 12.2263 10.1426 12.1198 10.1899C10.0296 11.1127 10.4556 14.4215 12.9697 14.6444L12.9658 14.6424Z" fill="#7225F5"/>
<path d="M29.4279 38.5355C28.509 38.4448 24.8965 38.429 24.161 38.6755C22.1201 39.3598 22.4513 42.7494 24.4449 43.1044H30.9245C32.2713 43.1044 32.859 41.4046 31.802 40.5725L31.4234 40.2747C30.682 39.7699 30.327 38.6242 29.4298 38.5375L29.4279 38.5355Z" fill="#7225F5"/>
<path d="M24.7305 5.0882C25.7125 5.22821 28.41 5.21046 29.4255 5.10792C30.2577 5.02313 30.7112 3.85775 31.4191 3.37069L31.9752 2.93293C32.9749 2.14615 32.4189 0.539062 31.145 0.539062H24.4426C24.2691 0.539062 23.5572 1.10894 23.4073 1.30021C22.3307 2.66673 22.9794 4.83975 24.7325 5.0882H24.7305Z" fill="#7225F5"/>
<path d="M52.7492 18.665C53.0253 18.9312 53.1633 19.2841 53.1633 19.7219C53.1633 20.1596 53.0253 20.5185 52.7492 20.7946C52.4712 21.0707 52.0078 21.2067 51.3551 21.2067H50.1168C49.9669 21.7707 49.7441 22.2853 49.4444 22.7507C49.1466 23.218 48.7917 23.6341 48.3815 23.995C47.9733 24.3558 47.5178 24.6634 47.017 24.9158C46.5161 25.1702 45.9876 25.3575 45.4335 25.4818L49.326 28.4258C49.6672 28.6821 49.9176 28.9385 50.0714 29.1909C50.2233 29.4453 50.3021 29.6937 50.3021 29.9422C50.3021 30.1216 50.2666 30.2971 50.1956 30.4647C50.1266 30.6304 50.03 30.7802 49.9117 30.9143C49.7934 31.0484 49.6593 31.1569 49.5094 31.2377C49.3596 31.3185 49.2018 31.358 49.0342 31.358C48.8567 31.358 48.6655 31.3185 48.4604 31.2377C48.2533 31.1569 48.0285 31.0247 47.7821 30.8433L41.054 25.7421C40.7996 25.5528 40.5768 25.3437 40.3875 25.1209C40.1982 24.8981 40.1035 24.5905 40.1035 24.1981C40.1035 23.2279 40.7069 22.7408 41.9118 22.7408H43.7574C44.0552 22.7408 44.3648 22.7093 44.6803 22.6462C44.9958 22.5851 45.3034 22.4904 45.6031 22.3603C45.9009 22.2321 46.1769 22.0724 46.4333 21.8811C46.6877 21.6918 46.9085 21.467 47.0919 21.2087H41.9098C41.2591 21.2087 40.7937 21.0707 40.5157 20.7966C40.2396 20.5205 40.1016 20.1616 40.1016 19.7239C40.1016 19.2861 40.2435 18.945 40.5295 18.6728C40.8174 18.4027 41.2748 18.2666 41.9098 18.2666H47.1984C47.0485 18.028 46.8651 17.817 46.6502 17.6376C46.4333 17.4562 46.2006 17.3044 45.9522 17.1801C45.6997 17.0559 45.4395 16.9612 45.1673 16.8942C44.8952 16.8272 44.627 16.7956 44.3628 16.7956H41.9098C40.705 16.7956 40.1016 16.3046 40.1016 15.3226C40.1016 14.3406 40.705 13.8496 41.9098 13.8496H51.3531C52.0039 13.8496 52.4692 13.9837 52.7473 14.2499C53.0233 14.5161 53.1614 14.8691 53.1614 15.3068C53.1614 15.7446 53.0233 16.1035 52.7473 16.3795C52.4692 16.6556 52.0058 16.7936 51.3531 16.7936H49.5607C49.8072 17.2413 49.9965 17.7303 50.1286 18.2666H51.3551C52.0058 18.2666 52.4712 18.4007 52.7492 18.6669V18.665Z" fill="#7225F5"/>
</svg>
