<svg width="63" height="61" viewBox="0 0 63 61" fill="none" xmlns="http://www.w3.org/2000/svg">
<path d="M43.4635 13.82C43.7693 14.1153 43.9222 14.5054 43.9222 14.9904C43.9222 15.4755 43.7693 15.8709 43.4635 16.1767C43.1551 16.4824 42.6437 16.6327 41.9214 16.6327H40.5507C40.3846 17.2574 40.1368 17.8268 39.8073 18.3408C39.4778 18.8575 39.085 19.3188 38.6316 19.7195C38.1809 20.1175 37.6748 20.4602 37.1212 20.737C36.565 21.0164 35.9824 21.2247 35.3682 21.3618L39.6755 24.6199C40.0525 24.9046 40.3293 25.1867 40.5006 25.4661C40.6693 25.7455 40.7563 26.0223 40.7563 26.2964C40.7563 26.4968 40.7168 26.6892 40.6377 26.8737C40.5612 27.0556 40.4558 27.2217 40.324 27.3693C40.1922 27.5169 40.0446 27.6382 39.8785 27.7278C39.7124 27.8174 39.5384 27.8596 39.3539 27.8596C39.1589 27.8596 38.9453 27.8148 38.7186 27.7278C38.4893 27.6382 38.2415 27.4932 37.9674 27.2902L30.5205 21.6438C30.2385 21.4329 29.9933 21.2036 29.7824 20.9558C29.5716 20.708 29.4688 20.368 29.4688 19.9357C29.4688 18.8601 30.1357 18.3224 31.4695 18.3224H33.5124C33.842 18.3224 34.1846 18.2881 34.5352 18.2196C34.8832 18.151 35.2259 18.0482 35.558 17.9033C35.8875 17.7609 36.1933 17.5843 36.4754 17.3734C36.7574 17.1625 36.9999 16.9147 37.2055 16.63H31.4695C30.7472 16.63 30.2358 16.4772 29.9274 16.174C29.6216 15.8682 29.4688 15.4728 29.4688 14.9878C29.4688 14.5028 29.6269 14.1258 29.9432 13.8227C30.2622 13.5222 30.7683 13.3745 31.4721 13.3745H37.3268C37.1607 13.1109 36.9578 12.879 36.7205 12.6786C36.4806 12.4783 36.2249 12.3096 35.9482 12.1725C35.6687 12.0354 35.3814 11.93 35.0783 11.8562C34.7777 11.7824 34.4799 11.7455 34.1873 11.7455H31.4721C30.1383 11.7455 29.4714 11.1998 29.4714 10.1164C29.4714 9.03297 30.1383 8.4873 31.4721 8.4873H41.9241C42.6463 8.4873 43.1577 8.63492 43.4662 8.93016C43.7719 9.2254 43.9248 9.61553 43.9248 10.1006C43.9248 10.5856 43.7719 10.981 43.4662 11.2868C43.1577 11.5926 42.6463 11.7455 41.9241 11.7455H39.9391C40.2106 12.241 40.4215 12.7814 40.5665 13.3745H41.9241C42.6463 13.3745 43.1577 13.5222 43.4662 13.8174L43.4635 13.82Z" fill="#7225F5"/>
<path d="M44.4376 44.1904C46.1827 44.0481 47.9673 42.3847 48.2388 40.6529C48.3627 39.87 48.2388 39.0976 48.2309 38.3226L57.9394 29.9611C60.8654 27.9471 64.2923 31.3476 62.3232 34.3184C57.6468 39.0528 53.4661 44.7308 48.7554 49.3782C48.3152 49.8131 47.7327 50.43 47.1105 50.5275L27.3692 49.5363C24.8412 49.5891 22.8484 50.6329 21.0901 52.3859L10.4062 40.4631C12.2067 36.4932 17.1308 33.4117 21.4935 33.2983C25.2419 33.2008 26.2436 34.1207 29.3752 35.3992C33.1659 36.9466 40.1672 36.1004 44.4719 36.7173C47.2081 37.1074 48.0173 40.7873 45.7029 42.3663C45.4129 42.564 44.4429 42.97 44.1371 42.9541L31.7978 42.3004C31.3997 42.2793 31.3338 43.4998 31.7319 43.5235L44.4402 44.1983L44.4376 44.1904Z" fill="#D5BEFC"/>
<path d="M6.93406 40.2707C7.83559 40.1653 8.61322 40.3946 9.25641 41.0378L19.7294 52.6812C20.6731 54.1706 20.1986 55.3383 19.0968 56.514C18.3244 57.3391 14.9924 60.3653 14.0936 60.6552C13.1947 60.9452 12.3511 60.8187 11.6078 60.2177L0.844794 48.2526C0.18051 47.3458 0.209507 46.0911 0.894879 45.1975C1.44318 44.4805 5.03611 41.2803 5.83746 40.732C6.14852 40.5211 6.56238 40.3129 6.93406 40.2707ZM6.93669 44.8021C4.92276 45.1105 5.42888 48.4635 7.66424 48.0681C9.64919 47.7149 9.35395 44.433 6.93669 44.8021Z" fill="#D5BEFC"/>
<path d="M49.6099 29.2203L51.1415 30.7519C51.2996 30.91 51.152 31.4135 50.8726 31.4478L44.9757 32.5707C44.6541 32.5707 44.4512 32.2887 44.5408 31.9882C45.0469 30.2642 45.0865 27.9471 45.6427 26.2917C45.7376 26.0096 46.0486 25.659 46.3069 25.9147L47.7858 27.3936C50.92 24.1618 52.6387 19.7042 52.3778 15.2177C52.1036 10.4991 50.1345 7.17772 46.7893 3.92484C46.2674 3.41609 45.5768 3.17621 45.7138 2.26414C45.8905 1.0911 47.0872 0.827492 47.9703 1.46805C49.1117 2.29577 50.4824 3.8194 51.3392 4.95027C56.8063 12.1888 56.1578 22.8596 49.6099 29.2203Z" fill="#7225F5"/>
<path d="M24.7321 5.19272C20.9969 8.79355 19.4152 14.2554 20.3273 19.3035C20.9125 22.5432 22.5917 25.717 24.9747 28.0156C25.6363 28.6535 26.8805 29.2018 26.7487 30.2694C26.6037 31.4345 25.4518 31.743 24.545 31.1182C23.0293 30.0691 21.2947 27.9602 20.2983 26.3997C15.6931 19.1954 16.7212 9.32604 22.8526 3.31322L21.2657 1.72632C21.1656 1.62615 21.3369 1.09894 21.5873 1.10948L27.6081 -0.00292969C27.9402 0.0761517 27.9455 0.258039 27.9218 0.542732C27.7662 2.4196 27.0044 4.49944 26.7988 6.40266C26.8067 6.63463 26.2901 6.75062 26.211 6.67154L24.7321 5.19272Z" fill="#7225F5"/>
</svg>
