<svg width="54" height="52" viewBox="0 0 54 52" fill="none" xmlns="http://www.w3.org/2000/svg">
<path d="M20.7848 14.7471V25.3998C20.7848 25.4235 20.4854 25.4346 20.3281 25.5154C17.9106 26.7547 16.9039 29.7138 18.2992 32.1159C20.1359 35.2742 24.6476 35.2254 26.4677 32.0756C26.6 31.8458 26.6988 31.3528 26.7378 31.3528H30.0799L22.4906 44.8296C20.7138 44.9146 18.955 44.5748 17.284 43.9913C13.2638 42.5877 9.73379 39.1649 8.24937 35.1669C4.77086 25.7995 10.93 15.8026 20.7848 14.7471Z" fill="#D5BEFC"/>
<path d="M23.918 14.747C29.1302 15.1787 33.8229 18.6321 36.0329 23.3082C34.8102 23.8499 33.894 24.8302 33.1699 25.9303C32.7939 26.5012 32.3775 27.5595 32.0085 28.0065C31.9194 28.1152 31.8525 28.2085 31.6966 28.2168L26.9119 28.2029C26.7601 28.15 26.3632 27.2727 26.1989 27.036C25.6071 26.1893 24.8036 25.7381 23.9194 25.2424V14.7456L23.918 14.747Z" fill="#D5BEFC"/>
<path d="M22.0149 28.2447C24.3111 27.8214 24.6147 31.1467 22.5008 31.3486C20.5903 31.5311 20.1767 28.5845 22.0149 28.2447Z" fill="#D5BEFC"/>
<path d="M24.993 0.617188H18.9607C18.2101 0.617188 17.6016 1.22568 17.6016 1.97628V9.33017C17.6016 10.0808 18.2101 10.6893 18.9607 10.6893H24.993C25.7437 10.6893 26.3521 10.0808 26.3521 9.33017V1.97628C26.3521 1.22568 25.7437 0.617188 24.993 0.617188Z" fill="#7225F5"/>
<path d="M5.78907 6.98437L1.52353 11.2499C0.992766 11.7807 0.992766 12.6412 1.52353 13.172L5.78907 17.4375C6.31983 17.9683 7.18036 17.9683 7.71112 17.4375L11.9767 13.172C12.5074 12.6412 12.5074 11.7807 11.9767 11.2499L7.71112 6.98437C7.18036 6.45361 6.31983 6.45361 5.78907 6.98437Z" fill="#7225F5"/>
<path d="M36.8125 6.98535L32.547 11.2509C32.0162 11.7816 32.0162 12.6422 32.547 13.1729L36.8125 17.4385C37.3433 17.9692 38.2038 17.9692 38.7346 17.4385L43.0001 13.1729C43.5309 12.6422 43.5309 11.7816 43.0001 11.2509L38.7346 6.98535C38.2038 6.45459 37.3433 6.45459 36.8125 6.98535Z" fill="#7225F5"/>
<path d="M53.419 46.3936C49.8875 39.9713 46.2517 33.5992 42.5935 27.2451C40.8738 25.0087 37.5972 25.0825 35.9665 27.3704L25.194 46.4674C24.339 48.9726 25.9321 51.3538 28.408 51.9275H50.2357C52.0069 51.539 53.2588 50.23 53.6821 48.481V47.2277L53.4204 46.3936H53.419ZM41.9126 39.186H42.8219C43.3051 39.186 43.6491 39.2848 43.8538 39.4826C44.0598 39.6803 44.1615 39.9421 44.1615 40.2665C44.1615 40.591 44.0585 40.857 43.8538 41.0617C43.6477 41.2664 43.3037 41.3694 42.8219 41.3694H41.9028C41.7914 41.7858 41.6257 42.1673 41.4043 42.5141C41.1829 42.8608 40.9197 43.1672 40.6162 43.4359C40.3126 43.7047 39.9756 43.9317 39.6038 44.1196C39.232 44.3062 38.8407 44.4469 38.4299 44.5388L41.3152 46.7223C41.57 46.913 41.7538 47.1024 41.868 47.289C41.9822 47.477 42.0393 47.6622 42.0393 47.846C42.0393 47.9797 42.0128 48.1092 41.9613 48.2331C41.9084 48.3571 41.8388 48.4685 41.7511 48.5673C41.6633 48.6662 41.5631 48.7456 41.4531 48.8055C41.3417 48.8653 41.2247 48.896 41.1008 48.896C40.9699 48.896 40.8278 48.8653 40.6746 48.8055C40.5215 48.7456 40.353 48.6481 40.1705 48.5144L35.1812 44.731C34.9918 44.5903 34.8275 44.4357 34.6868 44.27C34.5462 44.1043 34.4765 43.876 34.4765 43.5863C34.4765 42.865 34.9235 42.5057 35.8161 42.5057H37.185C37.4064 42.5057 37.6348 42.4834 37.8701 42.4375C38.1054 42.3915 38.3338 42.3205 38.5552 42.2258C38.7766 42.1311 38.9827 42.0128 39.1721 41.8707C39.3615 41.7301 39.5244 41.563 39.6609 41.3722H35.8161C35.3329 41.3722 34.989 41.2692 34.7843 41.0645C34.5782 40.8598 34.4765 40.5952 34.4765 40.2693C34.4765 39.9435 34.5824 39.6914 34.794 39.4909C35.0057 39.289 35.3469 39.1887 35.8161 39.1887H39.7389C39.6275 39.0119 39.4924 38.8573 39.3323 38.7222C39.1721 38.5886 38.9994 38.4744 38.8142 38.3825C38.629 38.2906 38.4341 38.2195 38.2322 38.1708C38.0302 38.1221 37.8311 38.097 37.6348 38.097H35.8148C34.9208 38.097 34.4752 37.7336 34.4752 37.0053C34.4752 36.277 34.9222 35.9135 35.8148 35.9135H42.8191C43.3023 35.9135 43.6463 36.0124 43.851 36.2101C44.0571 36.4079 44.1587 36.6697 44.1587 36.9941C44.1587 37.3186 44.0557 37.5846 43.851 37.7893C43.6449 37.994 43.3009 38.097 42.8191 38.097H41.4893C41.6717 38.4298 41.8123 38.7933 41.9098 39.1887L41.9126 39.186Z" fill="#7225F5"/>
<path d="M0.210641 28.3241C1.11578 13.6622 16.1466 3.89931 30.0008 8.9249C36.65 11.3367 41.9486 17.0906 43.7602 23.9376C42.3566 22.9643 40.7969 22.4657 39.0772 22.4588C36.7767 17.0558 31.701 12.9716 25.9235 11.8534C13.2154 9.39418 2.14763 20.416 4.43832 33.1296C5.92692 41.3956 13.3908 47.8764 21.8295 47.9572C21.8504 49.397 22.3475 50.7199 23.0827 51.9258H20.8895L18.4679 51.5791C9.82597 50.0696 2.73667 43.3493 0.784358 34.7979L0.210641 31.2483C0.253809 30.2819 0.150763 29.2877 0.210641 28.3241Z" fill="#D5BEFC"/>
</svg>
