<svg width="58" height="58" viewBox="0 0 58 58" fill="none" xmlns="http://www.w3.org/2000/svg">
<g clip-path="url(#clip0_230_3)">
<g clip-path="url(#clip1_230_3)">
<path d="M22.958 32.1349C20.6219 32.1349 18.6281 31.3092 16.9768 29.6578C15.3254 28.0065 14.4997 26.0127 14.4997 23.6766C14.4997 21.3405 15.3254 19.3467 16.9768 17.6953C18.6281 16.044 20.6219 15.2183 22.958 15.2183C25.2941 15.2183 27.2879 16.044 28.9393 17.6953C30.5906 19.3467 31.4163 21.3405 31.4163 23.6766C31.4163 26.0127 30.5906 28.0065 28.9393 29.6578C27.2879 31.3092 25.2941 32.1349 22.958 32.1349ZM22.958 27.3016C23.965 27.3016 24.8205 26.9488 25.5245 26.2431C26.2302 25.539 26.583 24.6835 26.583 23.6766C26.583 22.6697 26.2302 21.8142 25.5245 21.1101C24.8205 20.4044 23.965 20.0516 22.958 20.0516C21.9511 20.0516 21.0956 20.4044 20.3915 21.1101C19.6858 21.8142 19.333 22.6697 19.333 23.6766C19.333 24.6835 19.6858 25.539 20.3915 26.2431C21.0956 26.9488 21.9511 27.3016 22.958 27.3016ZM39.8747 34.5516C38.183 34.5516 36.7531 33.9676 35.5851 32.7995C34.417 31.6315 33.833 30.2016 33.833 28.5099C33.833 26.8183 34.417 25.3884 35.5851 24.2203C36.7531 23.0523 38.183 22.4683 39.8747 22.4683C41.5663 22.4683 42.9962 23.0523 44.1643 24.2203C45.3323 25.3884 45.9163 26.8183 45.9163 28.5099C45.9163 30.2016 45.3323 31.6315 44.1643 32.7995C42.9962 33.9676 41.5663 34.5516 39.8747 34.5516ZM28.9997 52.6766C25.6566 52.6766 22.515 52.0418 19.5747 50.7723C16.6344 49.5043 14.0768 47.7829 11.9018 45.6079C9.72676 43.4329 8.00529 40.8752 6.73734 37.9349C5.46779 34.9947 4.83301 31.853 4.83301 28.5099C4.83301 25.1669 5.46779 22.0252 6.73734 19.0849C8.00529 16.1447 9.72676 13.587 11.9018 11.412C14.0768 9.23701 16.6344 7.51473 19.5747 6.24518C22.515 4.97723 25.6566 4.34326 28.9997 4.34326C32.3427 4.34326 35.4844 4.97723 38.4247 6.24518C41.365 7.51473 43.9226 9.23701 46.0976 11.412C48.2726 13.587 49.9941 16.1447 51.262 19.0849C52.5316 22.0252 53.1663 25.1669 53.1663 28.5099C53.1663 31.853 52.5316 34.9947 51.262 37.9349C49.9941 40.8752 48.2726 43.4329 46.0976 45.6079C43.9226 47.7829 41.365 49.5043 38.4247 50.7723C35.4844 52.0418 32.3427 52.6766 28.9997 52.6766Z" fill="white"/>
<path d="M22.958 32.1349C20.6219 32.1349 18.6281 31.3092 16.9768 29.6578C15.3254 28.0065 14.4997 26.0127 14.4997 23.6766C14.4997 21.3405 15.3254 19.3467 16.9768 17.6953C18.6281 16.044 20.6219 15.2183 22.958 15.2183C25.2941 15.2183 27.2879 16.044 28.9393 17.6953C30.5906 19.3467 31.4163 21.3405 31.4163 23.6766C31.4163 26.0127 30.5906 28.0065 28.9393 29.6578C27.2879 31.3092 25.2941 32.1349 22.958 32.1349ZM22.958 27.3016C23.965 27.3016 24.8205 26.9488 25.5245 26.2431C26.2302 25.539 26.583 24.6835 26.583 23.6766C26.583 22.6696 26.2302 21.8141 25.5245 21.1101C24.8205 20.4044 23.965 20.0516 22.958 20.0516C21.9511 20.0516 21.0956 20.4044 20.3915 21.1101C19.6858 21.8141 19.333 22.6696 19.333 23.6766C19.333 24.6835 19.6858 25.539 20.3915 26.2431C21.0956 26.9488 21.9511 27.3016 22.958 27.3016ZM39.8747 34.5516C38.183 34.5516 36.7531 33.9676 35.5851 32.7995C34.417 31.6315 33.833 30.2016 33.833 28.5099C33.833 26.8183 34.417 25.3884 35.5851 24.2203C36.7531 23.0523 38.183 22.4683 39.8747 22.4683C41.5663 22.4683 42.9962 23.0523 44.1643 24.2203C45.3323 25.3884 45.9163 26.8183 45.9163 28.5099C45.9163 30.2016 45.3323 31.6315 44.1643 32.7995C42.9962 33.9676 41.5663 34.5516 39.8747 34.5516ZM24.8913 47.3599C26.7038 43.6946 29.1205 41.2474 32.1413 40.0181C35.1622 38.7904 37.74 38.1766 39.8747 38.1766C40.8011 38.1766 41.7073 38.2571 42.5934 38.4183C43.4795 38.5794 44.3455 38.7808 45.1913 39.0224C46.158 37.4919 46.9233 35.8405 47.4872 34.0683C48.0511 32.296 48.333 30.4433 48.333 28.5099C48.333 23.1127 46.4601 18.5412 42.7143 14.7953C38.9684 11.0495 34.3969 9.17659 28.9997 9.17659C23.6025 9.17659 19.0309 11.0495 15.2851 14.7953C11.5393 18.5412 9.66634 23.1127 9.66634 28.5099C9.66634 30.3224 9.89754 32.0544 10.3599 33.7058C10.8239 35.3571 11.5191 36.8877 12.4455 38.2974C14.0163 37.4919 15.6782 36.8676 17.4311 36.4245C19.1824 35.9815 21.0247 35.7599 22.958 35.7599C24.2469 35.7599 25.4858 35.8703 26.6748 36.091C27.8622 36.3133 29.04 36.6058 30.208 36.9683C29.2816 37.4516 28.406 38.0155 27.5811 38.6599C26.7546 39.3044 25.9788 39.9891 25.2538 40.7141C24.7705 40.6335 24.3581 40.5933 24.0165 40.5933H22.958C21.6288 40.5933 20.34 40.7342 19.0913 41.0162C17.8427 41.2981 16.6344 41.721 15.4663 42.2849C16.7552 43.5738 18.1956 44.6516 19.7873 45.5184C21.3775 46.3836 23.0788 46.9974 24.8913 47.3599ZM28.9997 52.6766C25.6566 52.6766 22.515 52.0418 19.5747 50.7723C16.6344 49.5043 14.0768 47.7828 11.9018 45.6078C9.72676 43.4328 8.00529 40.8752 6.73734 37.9349C5.46779 34.9946 4.83301 31.853 4.83301 28.5099C4.83301 25.1669 5.46779 22.0252 6.73734 19.0849C8.00529 16.1447 9.72676 13.587 11.9018 11.412C14.0768 9.23701 16.6344 7.51473 19.5747 6.24518C22.515 4.97723 25.6566 4.34326 28.9997 4.34326C32.3427 4.34326 35.4844 4.97723 38.4247 6.24518C41.3649 7.51473 43.9226 9.23701 46.0976 11.412C48.2726 13.587 49.9941 16.1447 51.262 19.0849C52.5316 22.0252 53.1663 25.1669 53.1663 28.5099C53.1663 31.853 52.5316 34.9946 51.262 37.9349C49.9941 40.8752 48.2726 43.4328 46.0976 45.6078C43.9226 47.7828 41.3649 49.5043 38.4247 50.7723C35.4844 52.0418 32.3427 52.6766 28.9997 52.6766Z" fill="url(#paint0_linear_230_3)"/>
<path fill-rule="evenodd" clip-rule="evenodd" d="M36.7217 10.6836C38.9112 11.6188 40.9089 12.9893 42.7147 14.7951C42.77 14.8505 42.825 14.906 42.8795 14.9617L45.6901 11.0135C43.8809 9.28835 41.818 7.86328 39.5016 6.73828L36.7217 10.6836Z" fill="#7C1CFF"/>
<g clip-path="url(#clip2_230_3)">
<path d="M32.2169 13.4351C32.0361 13.4245 31.9378 13.2149 32.0434 13.065L41.5253 -0.391824C41.6668 -0.592636 41.9775 -0.461835 41.9386 -0.217838L40.8015 6.91284C40.7799 7.04855 40.8772 7.17394 41.0118 7.18377L44.7864 7.45943C44.9661 7.47255 45.0617 7.68167 44.9559 7.83022L35.2872 21.4122C35.1425 21.6154 34.8279 21.4753 34.876 21.2291L36.3014 13.9399C36.3287 13.8005 36.2286 13.6686 36.0892 13.6605L32.2169 13.4351Z" fill="#FBAD18"/>
</g>
</g>
</g>
<defs>
<linearGradient id="paint0_linear_230_3" x1="4.83301" y1="51.0934" x2="53.1663" y2="5.92641" gradientUnits="userSpaceOnUse">
<stop stop-color="#7C1CFF"/>
<stop offset="0.61" stop-color="#7C1CFF"/>
<stop offset="0.853957" stop-color="#C499FF"/>
<stop offset="1" stop-color="white"/>
</linearGradient>
<clipPath id="clip0_230_3">
<rect width="57.59" height="57.59" fill="white"/>
</clipPath>
<clipPath id="clip1_230_3">
<rect width="58" height="58" fill="white" transform="translate(0 -0.490234)"/>
</clipPath>
<clipPath id="clip2_230_3">
<rect width="13" height="22" fill="white" transform="translate(32 -0.490234)"/>
</clipPath>
</defs>
</svg>
