<svg width="78" height="45" viewBox="0 0 78 45" fill="none" xmlns="http://www.w3.org/2000/svg">
<path d="M68.7211 21.7094H35.1562C35.7389 21.0777 36.2534 20.3988 36.6978 19.6814C38.0102 17.5694 38.7084 15.1266 38.7084 12.5614C38.7084 12.1397 38.6891 11.7145 38.6506 11.2858C38.5089 9.70748 38.0714 8.17989 37.389 6.76955C37.2998 6.58407 37.207 6.40034 37.109 6.21836L57.3333 5.76691L60.7997 5.47119C62.5495 8.20964 66.3448 14.1047 67.5329 15.7688C68.7211 17.4311 68.8208 20.4215 68.7211 21.7094Z" fill="#7225F5"/>
<path d="M75.6424 31.3124C75.5899 31.2424 75.5374 31.1741 75.4797 31.1077C75.6441 31.4366 75.7771 31.7883 75.8664 32.1663C75.9486 31.9108 75.8051 31.5346 75.6424 31.3124ZM66.7656 15.7461C66.8391 15.8703 66.9091 15.9946 66.9809 16.1188C66.9424 16.0506 66.9021 15.9806 66.8619 15.9106C66.8321 15.8581 66.7989 15.8038 66.7656 15.7461Z" fill="black"/>
<path d="M75.8079 31.9563C75.7887 31.8863 75.7677 31.8198 75.7449 31.7516C75.7222 31.6833 75.6977 31.6186 75.6732 31.5538C75.6487 31.4874 75.6207 31.4244 75.5944 31.3596C75.5752 31.3159 75.5559 31.2739 75.5367 31.2319C75.5157 31.1899 75.4964 31.1479 75.4754 31.1076C73.8271 27.8198 68.8297 26.9431 68.8297 26.9431C69.0571 25.8355 69.2339 24.7156 69.3266 23.5957C69.5716 20.5948 69.5471 18.39 68.093 15.7128C67.0466 13.7846 65.6923 11.732 64.5269 9.84748C63.5173 8.21316 62.3309 5.99616 61.2075 4.51582C60.2661 3.27521 58.6948 2.72577 57.1987 2.52629C49.5135 2.46155 41.8021 2.35831 34.1047 2.4248C35.3156 3.50268 36.3375 4.79229 37.1074 6.21838C37.2054 6.40036 37.2981 6.58409 37.3874 6.76957H42.5511C43.2037 6.76957 43.7322 7.29976 43.7322 7.95244V18.5003C43.7322 19.153 43.2037 19.6814 42.5511 19.6814H36.6962C36.2518 20.3988 35.7373 21.0777 35.1546 21.7094C34.7627 22.1346 34.341 22.5406 33.8895 22.922C30.4564 25.8232 25.9716 26.8259 21.5849 25.6727C20.8727 25.4855 20.262 25.2073 19.6688 24.9378C19.5201 24.8696 19.3731 24.8031 19.2279 24.7383L17.5463 26.4007L17.5428 28.077C17.4168 28.3359 16.9374 28.1995 16.6889 28.2362C16.3757 28.2852 16.0957 28.6072 16.0397 28.9134C15.9365 29.4856 15.9365 32.1995 16.0257 32.7875C16.1377 33.5119 16.7939 33.4016 16.9181 33.6099C16.9881 33.7254 16.9741 34.3325 16.9566 34.5058C16.8254 35.7936 15.751 35.3859 15.4588 36.2818C15.3695 36.553 15.3538 37.4052 15.401 37.6974C15.4605 38.0439 15.8332 38.4078 16.1727 38.4866C16.5314 38.5706 17.4273 38.5741 17.8613 38.5916C18.0153 38.5968 18.157 38.5058 18.3162 38.5163C18.5577 38.5321 18.8114 38.6126 19.0599 38.6283C19.0441 38.4306 19.0371 38.2311 19.0371 38.0299C19.0371 33.8268 22.4423 30.4217 26.6436 30.4217C30.8448 30.4217 34.2517 33.8268 34.2517 38.0299C34.2517 38.2346 34.243 38.4393 34.2272 38.6406C34.5072 38.3973 35.1581 38.5951 35.4626 38.6021C43.195 38.7491 50.9606 38.5478 58.6895 38.5198C60.1454 38.3466 61.5347 37.8234 62.6616 36.8803C62.8243 36.7438 63.603 35.8969 63.6747 35.8899C63.6835 35.8899 63.6957 35.8899 63.7097 35.8969C64.6319 32.7332 67.5523 30.4217 71.0134 30.4217C72.8542 30.4217 74.541 31.0762 75.8569 32.161C75.8604 32.1645 75.8621 32.1663 75.8621 32.1663C75.8447 32.0963 75.8272 32.0263 75.8079 31.9563ZM60.4131 11.9927L58.4411 7.33476C58.3098 7.02504 58.4621 6.66983 58.7735 6.54735L59.1865 6.38811C59.5714 6.0854 60.1401 5.93666 60.7071 5.80193C62.7981 9.00933 64.7701 12.306 66.6862 15.6166C66.7124 15.6621 66.7387 15.7058 66.7614 15.7461C66.7789 15.7741 66.7946 15.8021 66.8121 15.8301C66.8156 15.8353 66.8174 15.8388 66.8209 15.8441C66.8349 15.8668 66.8471 15.8896 66.8594 15.9106C66.8996 15.9788 66.9381 16.0488 66.9784 16.1188C66.9836 16.1293 66.9889 16.138 66.9941 16.1468C67.0186 16.1905 67.0431 16.2325 67.0676 16.2745C67.0694 16.278 67.0694 16.2815 67.0694 16.285C67.6766 17.3962 68.0073 18.3218 68.1822 18.9255C68.2925 19.3052 68.0055 19.6814 67.6118 19.6814H64.0614C63.8235 19.6814 63.6082 19.5397 63.5138 19.3192L61.9914 15.7216C61.9617 15.6761 61.9319 15.6288 61.9092 15.5834C61.3283 14.4932 60.8628 13.2526 60.4131 11.9927ZM59.5679 19.6814H43.7532C43.0987 19.6814 42.5703 19.153 42.5703 18.5003V7.95244C42.5703 7.29976 43.0987 6.76957 43.7532 6.76957H55.5241C56.0141 6.76957 56.4515 7.07229 56.6283 7.52899L60.6738 18.0751C60.9695 18.8502 60.3974 19.6814 59.5679 19.6814Z" fill="#D5BEFC"/>
<path d="M26.6942 31.3418C22.9759 31.3418 19.9609 34.355 19.9609 38.0733C19.9609 38.2535 19.9679 38.4285 19.9819 38.6052C20.0064 38.6052 20.0309 38.6087 20.0572 38.6087C20.2462 39.8336 20.5349 40.9447 21.1928 41.9526C21.1963 41.9596 21.1998 41.9666 21.2068 41.9736C22.4264 43.6902 24.4317 44.8083 26.6959 44.8083C28.1378 44.8083 29.4764 44.3551 30.5718 43.58C30.7083 43.4627 30.8867 43.3367 30.9742 43.272C30.9795 43.2685 30.9847 43.265 30.99 43.2597C31.0005 43.251 31.0127 43.2422 31.0232 43.2335C32.1973 42.1591 32.7818 41.0707 33.179 39.5326C33.235 39.3122 33.2577 38.866 33.3312 38.7172C33.3505 38.677 33.3767 38.6437 33.4047 38.6175C33.4187 38.4408 33.4257 38.257 33.4257 38.0768C33.4257 34.3585 30.4125 31.3453 26.6942 31.3453V31.3418ZM26.6942 40.9727C25.0931 40.9727 23.7948 39.6744 23.7948 38.0733C23.7948 36.4722 25.0931 35.1756 26.6942 35.1756C28.2953 35.1756 29.5919 36.4722 29.5919 38.0733C29.5919 39.6744 28.2953 40.9727 26.6942 40.9727Z" fill="#7225F5"/>
<path d="M75.0007 32.7947C73.8704 31.8603 72.4215 31.2969 70.8414 31.2969C67.872 31.2969 65.368 33.2794 64.5771 35.9934C64.4074 36.5725 64.3164 37.1867 64.3164 37.8237C64.3164 40.1806 65.5675 42.2437 67.4398 43.3915C68.4285 43.9987 69.5956 44.3487 70.8414 44.3487C72.0138 44.3487 73.1109 44.039 74.0593 43.5C76.0349 42.3802 77.3665 40.2559 77.3665 37.8254C77.3665 35.8009 76.4443 33.9933 75.0007 32.7965V32.7947ZM71.0164 40.7143C70.9587 40.7196 70.9009 40.7196 70.8414 40.7196C69.2404 40.7196 67.9438 39.423 67.9438 37.8219C67.9438 36.772 68.5037 35.8516 69.3384 35.3424C69.7758 35.0765 70.2902 34.9225 70.8397 34.9225C72.4408 34.9225 73.7391 36.2208 73.7391 37.8219C73.7391 39.423 72.5353 40.6216 71.0164 40.7126V40.7143Z" fill="#7225F5"/>
<path d="M66.9848 16.1188C66.913 15.9946 66.8413 15.8703 66.7695 15.7461C66.8045 15.8038 66.836 15.8598 66.8658 15.9106C66.906 15.9806 66.9463 16.0506 66.9848 16.1188Z" fill="white"/>
<path d="M37.2579 11.4097C37.1109 9.77016 36.6052 8.19184 35.8178 6.76924C35.7233 6.59601 35.6236 6.42453 35.5168 6.2548C34.5894 4.74822 33.3383 3.43936 31.8702 2.45072C30.8484 1.76129 29.7232 1.2276 28.5264 0.889889C19.8771 -1.55634 11.8034 5.67036 13.121 14.5226C13.3573 16.1097 14.0309 17.3608 14.6066 18.8184L1.30285 32.1869C-0.590444 34.8187 2.42098 38.1258 5.22417 36.614L17.5533 24.4283L18.8937 23.1054C19.9435 23.4467 20.8639 24.0346 21.9436 24.3181C26.1554 25.4257 30.2517 24.2516 33.1546 21.7091C33.844 21.1072 34.4652 20.4265 35.0041 19.6811C36.6507 17.4116 37.5379 14.5384 37.2579 11.4097ZM32.0907 16.9566C31.7023 17.5673 31.2316 18.1027 30.6996 18.5594C26.8098 21.9138 19.6391 21.1527 17.5726 15.751C17.2891 15.0108 17.1019 14.1849 17.0319 13.2698C16.9024 11.5777 17.1929 10.1219 17.7808 8.91451C20.0783 4.16378 26.9288 3.21363 30.6996 6.53477C31.2316 7.00372 31.7023 7.55666 32.0907 8.19709C32.6716 9.15598 33.0689 10.3109 33.2053 11.6635C33.4241 13.8052 32.9691 15.5743 32.0907 16.9566Z" fill="#7225F5"/>
<path d="M43.9662 6.74365V19.6555L36.6992 19.6817C38.0116 17.5697 38.7097 15.127 38.7097 12.5618C38.7097 12.1401 38.6905 11.7149 38.652 11.2862C38.5103 9.70783 38.0728 8.18024 37.3904 6.7699L43.9662 6.74365Z" fill="#D5BEFC"/>
</svg>
