<svg width="62" height="50" viewBox="0 0 62 50" fill="none" xmlns="http://www.w3.org/2000/svg">
<path d="M43.5342 33.1116C45.2395 32.9725 46.9835 31.347 47.2489 29.6545C47.3699 28.8894 47.2489 28.1347 47.2411 27.3773L56.7287 19.2061C59.5882 17.2379 62.937 20.5611 61.0127 23.4643C56.4428 28.0909 52.3572 33.6397 47.7538 38.1813C47.3236 38.6063 46.7543 39.2091 46.1463 39.3044L26.8542 38.3358C24.3838 38.3873 22.4363 39.4075 20.7181 41.1205L10.2773 29.469C12.0368 25.5895 16.8489 22.5781 21.1122 22.4673C24.7754 22.372 25.7543 23.2711 28.8146 24.5204C32.519 26.0326 39.361 25.2057 43.5677 25.8085C46.2416 26.1897 47.0325 29.7859 44.7707 31.329C44.4873 31.5222 43.5393 31.9189 43.2405 31.9034L31.182 31.2646C30.793 31.2439 30.7286 32.4367 31.1176 32.4598L43.5368 33.1193L43.5342 33.1116Z" fill="#D5BEFC"/>
<path d="M6.88608 29.2809C7.76709 29.1778 8.52703 29.402 9.15558 30.0305L19.3902 41.4089C20.3125 42.8644 19.8488 44.0056 18.772 45.1545C18.0172 45.9608 14.7611 48.9181 13.8826 49.2015C13.0042 49.4849 12.1799 49.3612 11.4534 48.7739L0.935398 37.0837C0.286232 36.1976 0.314569 34.9714 0.984343 34.0981C1.52016 33.3974 5.03132 30.2701 5.81444 29.7343C6.11842 29.5282 6.52286 29.3247 6.88608 29.2835V29.2809ZM6.88866 33.7117C4.92055 34.0131 5.41515 37.2898 7.59965 36.9034C9.53942 36.5582 9.2509 33.351 6.88866 33.7117Z" fill="#7225F5"/>
<path d="M34.6641 8.01034C34.847 8.18551 34.9372 8.41994 34.9372 8.70845C34.9372 8.99697 34.8445 9.23397 34.6641 9.41429C34.4812 9.59719 34.1747 9.68735 33.7445 9.68735H32.9279C32.83 10.0583 32.6806 10.3983 32.4848 10.7049C32.289 11.014 32.0546 11.2871 31.7841 11.5267C31.5162 11.7637 31.2148 11.9672 30.8851 12.1346C30.5553 12.302 30.2076 12.4257 29.8418 12.5081L32.4075 14.4505C32.6316 14.6205 32.7965 14.7879 32.8996 14.9554C33 15.1228 33.0515 15.2877 33.0515 15.45C33.0515 15.5685 33.0284 15.6844 32.982 15.7952C32.9356 15.9034 32.8738 16.0038 32.7939 16.0914C32.7167 16.179 32.6291 16.2511 32.5286 16.3052C32.4307 16.3593 32.3251 16.3851 32.2143 16.3851C32.0984 16.3851 31.9722 16.3593 31.8356 16.3052C31.6991 16.2511 31.5497 16.1661 31.3874 16.0451L26.9514 12.6807C26.784 12.5545 26.6372 12.418 26.5109 12.2711C26.3847 12.1243 26.3229 11.9208 26.3229 11.6632C26.3229 11.0217 26.7196 10.7023 27.5156 10.7023H28.7341C28.9299 10.7023 29.1334 10.6817 29.342 10.6405C29.5507 10.5993 29.7542 10.5375 29.95 10.4524C30.1458 10.3674 30.3287 10.2618 30.4961 10.1356C30.6635 10.0094 30.8104 9.86252 30.9314 9.69251H27.513C27.0828 9.69251 26.7763 9.60234 26.5934 9.41944C26.4105 9.23654 26.3203 9.00212 26.3203 8.71361C26.3203 8.42509 26.4156 8.20097 26.6037 8.02065C26.7943 7.8429 27.0957 7.75274 27.513 7.75274H31.001C30.9031 7.5956 30.782 7.45649 30.6404 7.33799C30.4987 7.21692 30.3441 7.11645 30.1792 7.03659C30.0144 6.95416 29.8418 6.89234 29.6615 6.84854C29.4811 6.80475 29.306 6.78414 29.1308 6.78414H27.513C26.717 6.78414 26.3203 6.45956 26.3203 5.81297C26.3203 5.16638 26.717 4.8418 27.513 4.8418H33.7393C34.1695 4.8418 34.4761 4.92938 34.659 5.10455C34.8419 5.27973 34.9321 5.51415 34.9321 5.80266C34.9321 6.09118 34.8393 6.32818 34.659 6.5085C34.4761 6.6914 34.1695 6.78157 33.7393 6.78157H32.5569C32.7192 7.07524 32.8455 7.39982 32.9305 7.75274H33.7393C34.1695 7.75274 34.4761 7.84032 34.659 8.01549L34.6641 8.01034Z" fill="#7225F5"/>
<path d="M48.4726 0.913025V20.2798C48.4726 20.5632 48.2433 20.7924 47.9599 20.7924H13.3017C13.0183 20.7924 12.7891 20.5632 12.7891 20.2798V0.913025C12.7891 0.629659 13.0183 0.400391 13.3017 0.400391H47.9599C48.2433 0.400391 48.4726 0.629659 48.4726 0.913025ZM41.8495 3.27269L19.3657 3.30103C19.1236 3.30103 18.9149 3.47105 18.866 3.70804C18.8222 3.92186 18.7758 4.12279 18.6805 4.36751C18.3121 5.30262 17.426 5.96467 16.4393 6.09862C16.192 6.13211 16.0117 6.35623 16.0143 6.60868L16.0503 14.5584C16.0503 14.7954 16.2152 15.0015 16.4471 15.053C17.6295 15.3157 18.5259 16.037 18.8531 17.2787C18.9149 17.5183 18.7604 17.8918 19.0978 17.9279L41.8444 17.9176C42.0942 17.9176 42.3003 17.7347 42.3493 17.4874C42.5811 16.2766 43.493 15.2874 44.7167 15.0968C44.9743 15.0581 45.1701 14.8495 45.1701 14.5893V6.60868C45.1726 6.36653 45 6.16045 44.763 6.10892C43.5111 5.84359 42.6069 4.9394 42.357 3.68486C42.3081 3.44271 42.102 3.26754 41.8547 3.26754L41.8495 3.27269Z" fill="#D5BEFC"/>
</svg>
