<svg width="132" height="28" viewBox="0 0 132 28" fill="none" xmlns="http://www.w3.org/2000/svg">
<g clip-path="url(#clip0_768_4443)">
<path d="M18.6712 19.8838L14.7886 26.6421C14.6911 26.8122 14.4463 26.8122 14.3478 26.6421L0.034247 1.84985C-0.0632662 1.68069 0.0591228 1.46875 0.254149 1.46875H8.04923C8.13978 1.46875 8.22436 1.51751 8.26914 1.59611L18.6702 19.6311C18.715 19.7097 18.716 19.8062 18.6702 19.8848L18.6712 19.8838Z" fill="#7225F5"/>
<path d="M20.169 16.5047L21.0167 11.3275C21.0456 11.1504 20.9093 10.9892 20.7292 10.9892H17.9301C17.7023 10.9892 17.562 10.7385 17.6834 10.5444L24.166 0.138391C24.3342 -0.131263 24.7521 0.025952 24.7003 0.339387L23.8496 5.51555C23.8207 5.69266 23.9571 5.85386 24.1372 5.85386H26.9362C27.164 5.85386 27.3043 6.1046 27.183 6.29864L20.7033 16.7057C20.5351 16.9753 20.1172 16.8191 20.169 16.5047Z" fill="#FBAD18"/>
<path d="M51.1246 1.28271L44.9723 19.6023L38.8469 1.28271H34.9434L41.9554 22.1416H47.9584L54.9992 1.28271H51.1246Z" fill="#7225F5"/>
<path d="M60.2413 5.63653C61.7269 5.63653 62.8045 4.64249 62.8045 3.27333C62.8045 1.90416 61.7259 0.937988 60.2413 0.937988C58.7567 0.937988 57.7637 1.91909 57.7637 3.27333C57.7637 4.62757 58.7826 5.63653 60.2413 5.63653Z" fill="#7225F5"/>
<path d="M62.2617 9.31938C62.2617 7.94425 61.5144 7.18604 60.1562 7.18604H55.8149V10.394H58.8816V18.9334H54.8984V22.1424H66.2438V18.9334H62.2607V9.31938H62.2617Z" fill="#7225F5"/>
<path d="M79.6843 9.59305C78.4604 7.84578 76.4932 6.8995 74.0246 6.8995C69.8345 6.8995 67.0195 10.014 67.0195 14.6488C67.0195 19.2837 69.8345 22.428 74.0246 22.428C76.4893 22.428 78.4574 21.4797 79.6843 19.7304V22.1414H83.2933V0.423828H79.6843V9.59305ZM79.6266 14.6488C79.6266 18.023 77.149 19.22 75.0276 19.22C72.2733 19.22 70.6285 17.5115 70.6285 14.6488C70.6285 11.7861 72.2733 10.1065 75.0276 10.1065C77.149 10.1065 79.6266 11.2965 79.6266 14.6488Z" fill="#7225F5"/>
<path d="M97.189 13.4169C97.189 17.0498 95.5014 19.22 92.6755 19.22C90.4586 19.22 89.5949 18.1951 89.5949 15.5662V7.18604H85.957V15.9095C85.957 19.9911 88.0824 22.4279 91.6436 22.4279C94.186 22.4279 96.1044 21.4349 97.189 19.5971V24.6071H86.9312V27.815H98.378C99.9382 27.815 100.799 27.027 100.799 25.5961V7.18604H97.19V13.4169H97.189Z" fill="#7225F5"/>
<path d="M114.64 13.4169C114.64 17.0498 112.953 19.22 110.127 19.22C107.881 19.22 107.046 18.2299 107.046 15.5662V7.18604H103.408V15.9095C103.408 19.9911 105.534 22.4279 109.096 22.4279C111.618 22.4279 113.538 21.4299 114.64 19.5822V22.1424H118.249V7.18604H114.64V13.4169Z" fill="#7225F5"/>
<path d="M126.9 18.9334V10.394H131.427V7.18604H126.9V2.74023L123.291 3.86263V7.18604H120.082V10.394H123.291V19.7215C123.291 21.3055 124.128 22.1424 125.712 22.1424H132.001V18.9334H126.9Z" fill="#7225F5"/>
</g>
<defs>
<clipPath id="clip0_768_4443">
<rect width="132" height="27.8141" fill="white"/>
</clipPath>
</defs>
</svg>
