<svg width="73" height="72" viewBox="0 0 73 72" fill="none" xmlns="http://www.w3.org/2000/svg">
<g clip-path="url(#clip0_1956_3022)">
<path d="M17.3809 32.1429C17.3809 34.169 17.7799 36.1753 18.5553 38.0472C19.3306 39.9191 20.4671 41.6199 21.8998 43.0526C23.3325 44.4853 25.0333 45.6217 26.9052 46.3971C28.7771 47.1724 30.7833 47.5715 32.8094 47.5715C34.8355 47.5715 36.8418 47.1724 38.7137 46.3971C40.5856 45.6217 42.2864 44.4853 43.7191 43.0526C45.1518 41.6199 46.2882 39.9191 47.0636 38.0472C47.8389 36.1753 48.238 34.169 48.238 32.1429C48.238 30.1168 47.8389 28.1105 47.0636 26.2387C46.2882 24.3668 45.1518 22.666 43.7191 21.2333C42.2864 19.8006 40.5856 18.6641 38.7137 17.8888C36.8418 17.1134 34.8355 16.7144 32.8094 16.7144C30.7833 16.7144 28.7771 17.1134 26.9052 17.8888C25.0333 18.6641 23.3325 19.8006 21.8998 21.2333C20.4671 22.666 19.3306 24.3668 18.5553 26.2387C17.7799 28.1105 17.3809 30.1168 17.3809 32.1429Z" fill="#E7F3F1"/>
<path fill-rule="evenodd" clip-rule="evenodd" d="M8.75573 8.08971C8.87535 7.9704 9.01732 7.87582 9.17351 7.8114C9.3297 7.74699 9.49706 7.71398 9.66602 7.71429H17.3803C18.4033 7.71429 19.3844 7.30791 20.1077 6.58455C20.8311 5.8612 21.2374 4.88012 21.2374 3.85714C21.2374 2.83416 20.8311 1.85309 20.1077 1.12973C19.3844 0.406376 18.4033 0 17.3803 0L9.66602 0C7.27907 0 4.98988 0.948211 3.30205 2.63604C1.61423 4.32387 0.666016 6.61305 0.666016 9L0.666016 16.7143C0.666016 17.7373 1.07239 18.7183 1.79575 19.4417C2.5191 20.1651 3.50018 20.5714 4.52316 20.5714C5.54614 20.5714 6.52722 20.1651 7.25057 19.4417C7.97392 18.7183 8.3803 17.7373 8.3803 16.7143V9C8.38 8.83104 8.413 8.66369 8.47742 8.50749C8.54184 8.3513 8.63641 8.20933 8.75573 8.08971ZM72.666 55.2857C72.666 54.2627 72.2596 53.2817 71.5363 52.5583C70.8129 51.8349 69.8318 51.4286 68.8089 51.4286C67.7859 51.4286 66.8048 51.8349 66.0815 52.5583C65.3581 53.2817 64.9517 54.2627 64.9517 55.2857V63C64.9517 63.341 64.8163 63.668 64.5752 63.9091C64.334 64.1503 64.007 64.2857 63.666 64.2857H55.9517C54.9288 64.2857 53.9477 64.6921 53.2243 65.4154C52.501 66.1388 52.0946 67.1199 52.0946 68.1429C52.0946 69.1658 52.501 70.1469 53.2243 70.8703C53.9477 71.5936 54.9288 72 55.9517 72H63.666C66.053 72 68.3421 71.0518 70.03 69.364C71.7178 67.6761 72.666 65.3869 72.666 63V55.2857ZM4.52316 51.4286C5.54614 51.4286 6.52722 51.8349 7.25057 52.5583C7.97392 53.2817 8.3803 54.2627 8.3803 55.2857V63C8.3803 63.341 8.51576 63.668 8.75688 63.9091C8.998 64.1503 9.32502 64.2857 9.66602 64.2857H17.3803C18.4033 64.2857 19.3844 64.6921 20.1077 65.4154C20.8311 66.1388 21.2374 67.1199 21.2374 68.1429C21.2374 69.1658 20.8311 70.1469 20.1077 70.8703C19.3844 71.5936 18.4033 72 17.3803 72H9.66602C7.27907 72 4.98988 71.0518 3.30205 69.364C1.61423 67.6761 0.666016 65.3869 0.666016 63L0.666016 55.2857C0.666016 54.2627 1.07239 53.2817 1.79575 52.5583C2.5191 51.8349 3.50018 51.4286 4.52316 51.4286ZM55.9517 0C54.9288 0 53.9477 0.406376 53.2243 1.12973C52.501 1.85309 52.0946 2.83416 52.0946 3.85714C52.0946 4.88012 52.501 5.8612 53.2243 6.58455C53.9477 7.30791 54.9288 7.71429 55.9517 7.71429H63.666C64.007 7.71429 64.334 7.84974 64.5752 8.09086C64.8163 8.33198 64.9517 8.65901 64.9517 9V16.7143C64.9517 17.7373 65.3581 18.7183 66.0815 19.4417C66.8048 20.1651 67.7859 20.5714 68.8089 20.5714C69.8318 20.5714 70.8129 20.1651 71.5363 19.4417C72.2596 18.7183 72.666 17.7373 72.666 16.7143V9C72.666 6.61305 71.7178 4.32387 70.03 2.63604C68.3421 0.948211 66.053 0 63.666 0H55.9517Z" fill="#FFC266"/>
<path fill-rule="evenodd" clip-rule="evenodd" d="M21.2377 32.1429C21.2377 29.074 22.4568 26.1307 24.6268 23.9607C26.7969 21.7906 29.7402 20.5715 32.8091 20.5715C35.878 20.5715 38.8213 21.7906 40.9913 23.9607C43.1614 26.1307 44.3805 29.074 44.3805 32.1429C44.3805 35.2118 43.1614 38.1551 40.9913 40.3251C38.8213 42.4952 35.878 43.7143 32.8091 43.7143C29.7402 43.7143 26.7969 42.4952 24.6268 40.3251C22.4568 38.1551 21.2377 35.2118 21.2377 32.1429ZM32.8091 12.8572C29.8022 12.8581 26.8371 13.5621 24.1507 14.913C21.4643 16.2639 19.131 18.2242 17.3372 20.6375C15.5433 23.0507 14.3386 25.85 13.8192 28.8117C13.2998 31.7734 13.4801 34.8156 14.3458 37.6952C15.2115 40.5748 16.7385 43.2121 18.805 45.3965C20.8714 47.5809 23.42 49.2518 26.2472 50.2758C29.0744 51.2998 32.1018 51.6486 35.0878 51.2942C38.0738 50.9399 40.9355 49.8922 43.4445 48.2349L51.9405 56.7257C52.2936 57.1047 52.7195 57.4087 53.1926 57.6195C53.6657 57.8303 54.1765 57.9437 54.6944 57.9528C55.2123 57.9619 55.7267 57.8667 56.207 57.6727C56.6873 57.4787 57.1236 57.1899 57.4899 56.8237C57.8561 56.4574 58.1449 56.0211 58.3389 55.5408C58.5329 55.0605 58.6281 54.5461 58.619 54.0282C58.6098 53.5103 58.4965 52.9996 58.2857 52.5264C58.0749 52.0533 57.7709 51.6274 57.3919 51.2743L48.9062 42.7783C50.8282 39.871 51.9264 36.4973 52.0841 33.0158C52.2418 29.5342 51.4532 26.075 49.802 23.0058C48.1509 19.9366 45.6989 17.3723 42.7068 15.5853C39.7146 13.7983 36.2942 12.8555 32.8091 12.8572Z" fill="#61B3A6"/>
</g>
<defs>
<clipPath id="clip0_1956_3022">
<rect width="72" height="72" fill="white" transform="translate(0.666016)"/>
</clipPath>
</defs>
</svg>
