<svg width="104" height="104" viewBox="0 0 104 104" fill="none" xmlns="http://www.w3.org/2000/svg">
<g clip-path="url(#clip0_1832_4278)">
<path d="M35.4662 81.9285C37.871 74.4582 33.8215 66.1693 26.1174 64.1885C15.4091 61.4255 6.19185 71.5418 9.75155 81.9285C5.32203 81.9723 2.39825 79.2167 2.09126 74.8237C1.52112 66.6152 1.60153 60.0148 10.7749 57.9901C15.9061 56.8571 21.5855 56.4258 26.6144 55.1321C27.7693 54.8324 28.2664 54.6423 29.1947 53.8895C33.0467 50.7683 38.9235 42.4575 43.4408 41.3611C46.0429 40.7252 49.3322 41.3611 52.0367 41.1345C51.9709 53.2389 60.5156 64.3274 72.218 67.2731C68.2929 71.2128 66.9845 76.5853 68.6072 81.9285H35.4589H35.4662Z" fill="#D5BEFC"/>
<path d="M21.395 68.3841C33.8138 66.9003 35.261 85.6782 23.0323 86.3873C11.7977 87.0305 10.1385 69.7364 21.395 68.3841ZM22.0236 75.1746C19.3922 75.7082 20.072 79.9696 22.9812 79.5456C25.8903 79.1217 25.3641 74.4948 22.0236 75.1746Z" fill="#7225F5"/>
<path d="M80.2509 68.3841C93.0571 66.8564 93.8027 86.0071 81.881 86.3872C70.3686 86.76 69.3233 69.6852 80.2509 68.3841ZM80.8722 75.1745C78.3943 75.752 78.8987 79.9769 81.8371 79.5529C84.7755 79.129 84.1907 74.4071 80.8722 75.1745Z" fill="#7225F5"/>
<path d="M100.264 58.5529C100.484 58.7356 101.492 61.1258 101.609 61.5717C102.216 63.9546 102.296 74.524 101.653 76.8338C100.725 80.1742 97.7132 82.0381 94.3217 81.9285C96.3756 76.0956 94.2705 69.9045 89.4316 66.2132C92.3773 65.051 95.1476 63.3333 97.5086 61.2208C98.3784 60.446 99.0436 59.5251 99.8257 58.6991C99.9645 58.5529 100.125 58.4506 100.264 58.5675V58.5529Z" fill="#D5BEFC"/>
<path d="M78.416 17.6347C80.6453 17.2838 83.2402 19.4108 85.2941 20.3538C88.8904 22.013 92.3478 22.8901 96.2364 23.5699C96.6823 23.6503 97.2231 23.6357 97.6617 23.7161C99.5329 24.0743 100.761 25.4119 100.995 27.305C100.739 34.7241 102.018 42.0628 98.9116 49.036C95.4981 56.7036 89.7602 59.8247 82.7066 63.5599C80.9304 64.5028 79.7536 65.4311 77.6339 64.6124C70.7849 60.9139 64.3234 58.0486 60.3836 50.9218C56.188 43.3346 57.5548 35.5282 57.3575 27.2027C57.9276 23.2922 61.7212 23.7307 64.7034 23.1094C68.5117 22.3273 71.9325 20.9678 75.3679 19.1916C76.2524 18.7384 77.4584 17.7735 78.416 17.6273V17.6347ZM86.2882 33.3719C85.74 33.4084 85.2503 33.6862 84.8337 34.0224L77.9555 41.4123C76.6178 40.6448 74.6662 37.911 73.1459 37.8453C71.0554 37.7575 70.032 40.1843 71.4647 41.7339C72.9704 43.3639 75.2364 44.8331 76.8298 46.4412C78.1894 47.2525 79.3735 46.602 80.2726 45.5129C82.5897 42.6695 85.6158 40.1404 87.9329 37.3336C88.693 36.4126 89.0147 35.5209 88.3276 34.4244C87.9109 33.752 87.0703 33.3207 86.2882 33.3719Z" fill="#7225F5"/>
</g>
<defs>
<clipPath id="clip0_1832_4278">
<rect width="100.198" height="68.8038" fill="white" transform="translate(1.90039 17.5981)"/>
</clipPath>
</defs>
</svg>
