<svg width="58" height="58" viewBox="0 0 58 58" fill="none" xmlns="http://www.w3.org/2000/svg">
<path d="M43.3775 35.3396C39.5975 33.4046 34.6925 31.8296 29 31.8296C23.3075 31.8296 18.4025 33.4046 14.6225 35.3396C12.3725 36.4871 11 38.8046 11 41.3246V47.5796H47V41.3246C47 38.8046 45.6275 36.4871 43.3775 35.3396Z" fill="url(#paint0_linear_230_73)"/>
<path d="M29 29.5796C33.9725 29.5796 38 25.5521 38 20.5796C38 17.4971 38 12.7046 38 12.7046C38 10.8371 36.4925 9.32959 34.625 9.32959C33.455 9.32959 32.42 9.93709 31.8125 10.8371C31.205 9.93709 30.17 9.32959 29 9.32959C27.83 9.32959 26.795 9.93709 26.1875 10.8371C25.58 9.93709 24.545 9.32959 23.375 9.32959C21.5075 9.32959 20 10.8371 20 12.7046C20 12.7046 20 17.4746 20 20.5796C20 25.5521 24.0275 29.5796 29 29.5796Z" fill="url(#paint1_linear_230_73)"/>
<path d="M43 34L34 38V44C34 49.55 37.84 54.74 43 56C48.16 54.74 52 49.55 52 44V38L43 34Z" fill="white"/>
<path d="M43 34L34 38V44C34 49.55 37.84 54.74 43 56C48.16 54.74 52 49.55 52 44V38L43 34ZM41 50L37 46L38.41 44.59L41 47.17L47.59 40.58L49 42L41 50Z" fill="#FBAD18"/>
<defs>
<linearGradient id="paint0_linear_230_73" x1="11" y1="47.0637" x2="23.1239" y2="21.1674" gradientUnits="userSpaceOnUse">
<stop stop-color="#7C1CFF"/>
<stop offset="0.61" stop-color="#7C1CFF"/>
<stop offset="0.853957" stop-color="#C499FF"/>
<stop offset="1" stop-color="white"/>
</linearGradient>
<linearGradient id="paint1_linear_230_73" x1="20" y1="28.9163" x2="39.9521" y2="12.3429" gradientUnits="userSpaceOnUse">
<stop stop-color="#7C1CFF"/>
<stop offset="0.61" stop-color="#7C1CFF"/>
<stop offset="0.853957" stop-color="#C499FF"/>
<stop offset="1" stop-color="white"/>
</linearGradient>
</defs>
</svg>
