<svg width="262" height="60" viewBox="0 0 262 60" fill="none" xmlns="http://www.w3.org/2000/svg">
<path d="M131.428 0.659424L103.59 28.2559L97.7263 27.8209C95.9554 28.8307 87.6369 38.8269 86.8757 38.99C84.064 39.5959 78.5571 37.2191 75.4969 36.9939L69.9124 42.1668L76.6387 48.9086L66.2618 59.2L55.5821 48.9086L62.3084 42.1668L56.7238 36.9939C54.0753 37.1337 48.0092 39.6036 45.7567 38.9201C43.5043 38.2366 36.9799 28.854 33.8886 27.8132L28.2963 28.1705L0.800781 0.659424L58.5103 14.3683C59.7996 14.3916 65.2599 7.20708 66.2696 7.42456L73.4697 14.3916L131.428 0.659424ZM108.251 13.2965C107.699 13.514 107.288 13.8945 106.682 14.0421C93.1127 17.2732 79.5047 20.3335 65.9045 23.4403L23.97 13.514L31.8847 22.982L51.784 25.5219C51.6131 26.3374 50.9374 26.2675 50.316 26.3685C47.4577 26.8268 44.4984 26.5316 41.6712 27.2151C41.4382 27.5336 46.7975 32.7297 47.1548 32.8929C49.0966 33.7938 56.1491 31.0598 58.6889 31.0987L66.2618 38.1356L73.5318 31.0987L85.0116 33.4909C85.0349 32.3181 90.8369 27.6035 90.5495 27.2151C87.7223 26.5316 84.7708 26.8345 81.9048 26.3685C81.2756 26.2675 80.6077 26.3452 80.4368 25.5219L99.4273 23.2228C100.717 22.8267 106.511 15.9917 107.622 14.5625C107.948 14.1431 108.437 14.0266 108.251 13.2965ZM65.9589 46.1979L63.1705 48.9086L66.2696 51.6193L69.058 48.9086L65.9589 46.1979Z" fill="black"/>
<path d="M141.375 23.4061C141.61 22.29 142.805 21.3832 143.956 21.2524C147.94 20.8077 156.948 20.8949 161.02 21.2785C161.97 21.3657 163.609 21.7668 163.609 22.9352V35.4739H159.354V25.7778C159.354 24.7925 155.884 25.0715 155.099 25.0715V35.4826H150.365V25.7865C150.365 24.8012 146.894 25.0802 146.109 25.0802V35.4913H141.375C141.88 32.0209 140.695 26.641 141.375 23.4322V23.4061Z" fill="black"/>
<path d="M168.676 21.3831C170.455 20.9907 178.459 21.0082 180.43 21.261C181.999 21.4616 182.828 22.2725 183.028 23.8594C183.229 25.4464 183.194 33.4422 182.566 34.3228C182.034 35.064 180.822 35.3779 179.941 35.4825C177.735 35.7354 171.658 35.779 169.496 35.4912C165.502 34.9681 166.077 27.417 166.435 24.339C166.609 22.8393 167.089 21.7232 168.676 21.3744V21.3831ZM171.178 31.21H178.276V25.054L171.623 25.2633C170.69 25.8824 171.388 29.9195 171.178 31.21Z" fill="black"/>
<path d="M237.167 21.2784C240.672 22.0196 240.846 29.8323 236.949 30.9658L239.765 35.4651C233.557 36.8863 233.348 31.9424 230.313 28.132L235.039 27.8965V25.054H228.412V35.4651H223.678V21.2697C227.549 21.8278 233.574 20.5111 237.158 21.2697L237.167 21.2784Z" fill="black"/>
<path d="M185.844 23.406C186.01 22.6212 187.126 21.4528 187.981 21.2872C190.012 20.8861 197.485 21.0605 199.804 21.2784C204.984 21.758 202.15 31.053 202.804 34.6803C202.333 36.0667 199.377 35.2907 198.139 35.4738V25.7777C198.139 24.7052 190.57 24.7052 190.57 25.7777V35.4738H185.836C186.341 32.0034 185.156 26.6235 185.836 23.4147L185.844 23.406Z" fill="black"/>
<path d="M261.529 35.4653C259.925 35.2386 256.803 35.9972 255.574 35.0381C254.466 34.1748 252.975 28.2281 251.362 26.9551C250.525 27.9404 247.665 35.1427 247.273 35.3955C246.706 35.753 242.66 35.4915 241.666 35.2299C241.666 34.4887 247.656 22.5953 248.267 21.9675C249.252 20.9561 253.141 20.9299 254.24 21.7234C256.524 23.3714 259.541 32.7884 261.538 35.474L261.529 35.4653Z" fill="black"/>
<path d="M221.324 21.2784V25.0627H215.648V35.4738H210.442V25.0627H204.766V21.2784H221.324Z" fill="black"/>
<path d="M159.355 43.0424H140.904V44.4636H159.355V43.0424Z" fill="black"/>
<path d="M261.528 43.0423C261.589 43.0859 261.642 44.0887 261.999 44.4636H243.549V43.0423C245.851 43.4521 260.813 42.5017 261.528 43.0423Z" fill="black"/>
<path d="M214.697 40.6794C216.773 40.5486 219.964 40.1998 218.9 43.2342C218.63 44.0102 217.27 43.7312 217.514 44.6903L219.432 47.2975C217.339 47.6375 217.034 45.3181 215.656 44.4636C215.421 45.4489 216.406 47.6811 214.706 47.3062V40.6794H214.697ZM218.011 41.6211H215.639V43.0336H218.011V41.6211Z" fill="black"/>
<path d="M238.352 45.4053C238.152 47.437 235.117 47.5329 233.748 46.9399C229.894 45.2658 231.926 38.6564 237.402 40.9148C238.187 41.2374 238.614 42.0483 237.646 42.554C233.644 38.7959 230.845 46.0767 235.37 46.225C236.355 46.2598 237.219 45.1263 238.352 45.3966V45.4053Z" fill="black"/>
<path d="M198.959 40.8186C199.255 40.9407 200.633 42.3358 199.308 42.5712C198.872 42.6497 198.104 41.7603 197.398 41.6295C193.283 40.8448 193.649 46.5473 197.25 46.1201C197.93 46.0416 199.718 44.5505 199.543 46.1113C196.596 48.7621 192.289 46.774 193.614 42.5451C194.268 40.4611 197.171 40.1123 198.95 40.8273L198.959 40.8186Z" fill="black"/>
<path d="M164.552 40.6793H168.807C169.321 42.554 166.025 41.1938 165.493 41.6297C165.441 41.6733 165.441 42.9987 165.493 43.0423C165.921 43.3911 169.225 42.3186 168.807 43.7486C168.615 44.3938 165.485 43.2429 165.485 45.1699C165.485 47.4108 169.225 45.2745 168.798 47.2974H164.543V40.6793H164.552Z" fill="black"/>
<path d="M183.481 40.6793H187.736C188.251 42.554 184.955 41.1938 184.423 41.6297C184.371 41.6733 184.371 42.9987 184.423 43.0423C184.85 43.3911 188.155 42.3186 187.736 43.7486C187.545 44.3938 184.414 43.2429 184.414 45.1699C184.414 47.4108 188.155 45.2745 187.728 47.2974H183.473V40.6793H183.481Z" fill="black"/>
<path d="M209.022 40.6793L207.574 41.8826C207.583 43.1382 207.653 44.4025 207.6 45.6494C207.574 46.3732 208.045 47.5241 206.894 47.2974C205.804 45.8761 206.502 43.4347 206.188 41.9262C206.083 41.4292 204.732 41.9175 205.229 40.6793H209.004H209.022Z" fill="black"/>
<path d="M174.49 40.6794C175.066 39.912 175.353 40.6793 175.441 41.3769C175.589 42.5628 175.092 45.0914 175.641 45.9111C176.225 46.783 178.083 45.9982 178.274 46.5912C178.719 47.9427 175.013 47.0533 174.49 47.2974V40.6706V40.6794Z" fill="black"/>
<path d="M226.058 40.6793H225.107V47.3061H226.058V40.6793Z" fill="black"/>
</svg>
