<svg width="73" height="73" viewBox="0 0 73 73" fill="none" xmlns="http://www.w3.org/2000/svg">
<path d="M64.9432 31.7211C69.3432 31.2971 72.8351 35.4479 71.8468 39.7505C71.2452 42.3687 66.3697 46.3906 64.333 48.4789C59.6924 53.2398 54.4473 59.2755 49.4658 63.5237C47.6267 65.0906 46.3062 65.4831 43.9658 65.9042C34.9681 67.5227 25.5666 68.1156 16.5317 69.6682C14.9877 70.5534 13.564 74.0854 11.5845 72.2865L0.0775059 60.4701C-0.105828 59.9859 0.04886 59.5219 0.406933 59.1724L17.2937 42.2857C19.8145 40.0284 23.1947 40.7674 26.3085 40.6872C31.4934 40.5555 37.3944 40.1802 42.5507 40.5125C47.1283 40.8075 50.4913 44.4398 48.8614 49.0862C46.5267 55.7349 36.77 52.3948 31.459 53.2313C29.9265 53.4747 29.978 55.5315 31.4418 55.8036C35.395 55.5315 39.7663 56.1388 43.6707 55.7922C48.3973 55.3711 52.0611 51.1143 51.8004 46.3792C51.7431 45.3536 51.3192 44.3711 51.2247 43.4172L61.5257 33.1219C62.451 32.3971 63.7715 31.8299 64.9432 31.7154V31.7211Z" fill="#D5BEFC"/>
<path d="M42.5947 0.846612C58.2124 -0.502607 60.2434 22.6862 45.1184 24.4365C29.1884 26.2784 27.1947 2.17578 42.5947 0.846612Z" fill="#7225F5"/>
<path d="M22.2012 37.9458C23.7223 33.2594 26.5124 29.1344 30.5142 26.2354C31.153 25.7714 34.0491 23.8865 34.6592 23.9495C34.8941 23.9753 35.9369 24.8432 36.3035 25.0495C40.6319 27.4815 45.877 27.7823 50.3514 25.4906C51.0561 25.1297 52.4913 23.875 53.1186 23.9839C53.4738 24.044 54.803 24.8661 55.2184 25.1125C57.4785 26.4531 59.3663 28.2177 61.1166 30.1513L49.7785 41.1599C49.4692 41.2401 49.5064 40.8477 49.2314 40.5927C47.6473 39.1089 45.2095 37.9487 43.0296 37.9487H22.204L22.2012 37.9458Z" fill="#7225F5"/>
</svg>
