<svg width="73" height="73" viewBox="0 0 73 73" fill="none" xmlns="http://www.w3.org/2000/svg">
<path d="M56.6705 0.527902V11.7478C56.6705 13.1379 59.2704 15.7377 60.6605 15.7377H71.8804L72.0383 16.5583V67.4749C71.8324 70.1367 69.805 72.1585 67.1404 72.37L20.1461 72.3644C17.6816 72.1388 15.4004 69.8407 15.4004 67.3198V63.5554C15.4004 63.5385 15.6091 63.3298 15.626 63.3298H57.6462L68.2203 59.1453C69.9488 57.9525 69.8699 55.6572 68.0117 54.6224C65.0453 52.97 60.7818 52.0169 57.6462 50.5281H15.6316C15.6147 50.5281 15.406 50.3194 15.406 50.3025V5.42302C15.406 2.967 17.6083 0.67171 20.0135 0.392553L55.85 0.369995L56.6705 0.527902ZM21.2373 4.32895C20.2335 4.51224 19.4665 5.50198 19.334 6.49171C19.1732 7.67884 19.1845 10.9921 19.3199 12.2017C19.4552 13.4114 20.4591 14.4068 21.6546 14.5365C22.9405 14.6747 25.9435 14.6747 27.2293 14.5365C28.408 14.4096 29.4259 13.5581 29.5641 12.3512C29.7135 11.0541 29.7107 7.77471 29.5641 6.47762C29.44 5.38073 28.6223 4.45866 27.5169 4.30639C26.4116 4.15413 22.2806 4.13721 21.2401 4.32895H21.2373ZM33.2862 5.53299C31.8143 5.79523 31.9327 7.83111 33.1029 8.05387C33.7543 8.17794 38.3195 8.17794 38.9709 8.05387C40.1382 7.83393 40.2651 5.79523 38.7876 5.53299C37.8937 5.37227 34.1801 5.37227 33.2862 5.53299ZM42.8621 5.84881C42.1572 6.49453 42.4871 7.93544 43.5022 8.05105C46.4432 7.81137 49.9623 8.4007 52.8357 8.06233C54.4401 7.8734 54.3809 5.7473 52.8216 5.50762C51.2622 5.26793 45.4986 5.30177 43.7927 5.49352C43.5135 5.52453 43.0652 5.6627 42.865 5.84599L42.8621 5.84881ZM33.2862 10.6537C31.9327 11.0146 31.7804 12.6247 33.1029 13.1746L47.8672 13.1858C49.1841 13.0167 49.3589 10.8426 47.4076 10.617L33.2862 10.6509V10.6537Z" fill="#D5BEFC"/>
<path d="M55.3171 53.0912H12.8457V60.7722H55.3171V53.0912Z" fill="#7225F5"/>
<path d="M70.0744 13.1802H60.9638C60.5775 13.1802 59.2324 11.838 59.2324 11.4488V2.33533L70.0773 13.1802H70.0744Z" fill="#D5BEFC"/>
<path d="M5.16468 53.0912V60.7722H2.07703C1.39182 60.7722 0.387985 59.7064 0.184962 59.0494C-0.071637 58.2203 -0.0772766 55.3696 0.269555 54.5969C0.489497 54.1035 1.55819 53.0912 2.07703 53.0912H5.16468Z" fill="#7225F5"/>
<path d="M57.877 60.4706V53.3929L62.0615 55.1215C61.6047 56.2804 61.7118 57.648 62.0305 58.821L57.877 60.4734V60.4706Z" fill="#7225F5"/>
<path d="M10.285 53.0912H7.72461V60.7722H10.285V53.0912Z" fill="#7225F5"/>
<path d="M66.7604 56.8584L64.6568 57.8453C64.1577 57.9609 64.2705 55.973 64.575 55.956C64.7527 55.9448 66.3459 56.864 66.7575 56.8584H66.7604Z" fill="#7225F5"/>
<path d="M26.9996 6.85266H21.8789V11.9734H26.9996V6.85266Z" fill="#D5BEFC"/>
</svg>
