<svg width="72" height="72" viewBox="0 0 72 72" fill="none" xmlns="http://www.w3.org/2000/svg">
<g clip-path="url(#clip0_1956_2998)">
<path fill-rule="evenodd" clip-rule="evenodd" d="M15.5418 38.7977L13.1967 36.864L11.6795 39.4972L0.344654 59.1326C0.0922355 59.5728 -0.0243118 60.0778 0.00968582 60.5841C0.0436834 61.0903 0.226706 61.5752 0.535711 61.9777C0.844716 62.3802 1.26589 62.6822 1.7462 62.8458C2.22652 63.0095 2.7445 63.0273 3.23494 62.8972L13.0012 60.2846L15.6138 70.0457C15.7458 70.5368 16.0204 70.9777 16.403 71.3128C16.7856 71.6478 17.2589 71.8619 17.7631 71.9279C18.2673 71.994 18.7798 71.909 19.2357 71.6839C19.6917 71.4587 20.0706 71.1034 20.3247 70.6629L30.1629 53.6349L31.2481 51.7474L29.5715 50.3589L15.5418 38.7977ZM56.4584 38.7977L58.8035 36.864L60.3207 39.4972L71.6555 59.1326C71.9086 59.5732 72.0255 60.0789 71.9914 60.5858C71.9573 61.0928 71.7738 61.5783 71.464 61.9811C71.1543 62.3838 70.7321 62.6858 70.2509 62.8488C69.7696 63.0119 69.2509 63.0287 68.7601 62.8972L58.9989 60.2846L56.3812 70.0457C56.2492 70.5368 55.9746 70.9777 55.592 71.3128C55.2095 71.6478 54.7362 71.8619 54.2319 71.9279C53.7277 71.994 53.2153 71.909 52.7593 71.6839C52.3034 71.4587 51.9244 71.1034 51.6704 70.6629L41.8372 53.64L40.7469 51.7526L42.4286 50.364L56.4584 38.7977Z" fill="#E5767B"/>
<path fill-rule="evenodd" clip-rule="evenodd" d="M35.9841 0.0463867C28.9937 0.0463867 22.2897 2.82329 17.3468 7.76622C12.4039 12.7091 9.62695 19.4132 9.62695 26.4035C9.62695 33.3939 12.4039 40.0979 17.3468 45.0408C22.2897 49.9838 28.9937 52.7607 35.9841 52.7607C42.9744 52.7607 49.6785 49.9838 54.6214 45.0408C59.5643 40.0979 62.3412 33.3939 62.3412 26.4035C62.3412 19.4132 59.5643 12.7091 54.6214 7.76622C49.6785 2.82329 42.9744 0.0463867 35.9841 0.0463867Z" fill="#F6D08E"/>
<path d="M37.0289 12.5128L40.5415 19.5739C40.6195 19.7522 40.7435 19.9066 40.9007 20.0213C41.0579 20.136 41.2427 20.207 41.4363 20.2271L49.2329 21.4099C49.4561 21.4385 49.6666 21.5301 49.8396 21.6741C50.0126 21.8181 50.1409 22.0085 50.2095 22.2228C50.2781 22.4372 50.2841 22.6667 50.2268 22.8844C50.1695 23.102 50.0513 23.2988 49.886 23.4516L44.1312 28.9236C44.0456 29.0871 44.0008 29.2688 44.0008 29.4534C44.0008 29.6379 44.0456 29.8196 44.1312 29.9831L45.2317 37.7436C45.278 37.967 45.2588 38.1989 45.1763 38.4115C45.0938 38.6242 44.9517 38.8084 44.7669 38.9421C44.5821 39.0758 44.3626 39.1532 44.1349 39.165C43.9071 39.1769 43.6808 39.1226 43.4832 39.0088L36.5403 35.3316C36.3602 35.25 36.1647 35.2077 35.9669 35.2077C35.7691 35.2077 35.5736 35.25 35.3935 35.3316L28.4506 39.0088C28.253 39.1226 28.0266 39.1769 27.7989 39.165C27.5711 39.1532 27.3516 39.0758 27.1669 38.9421C26.9821 38.8084 26.8399 38.6242 26.7574 38.4115C26.675 38.1989 26.6557 37.967 26.702 37.7436L28.0032 29.9831C28.0589 29.8032 28.0693 29.6124 28.0334 29.4275C27.9975 29.2427 27.9164 29.0696 27.7975 28.9236L22.0477 23.4105C21.8946 23.256 21.7871 23.0623 21.7369 22.8506C21.6868 22.639 21.696 22.4176 21.7635 22.2108C21.831 22.004 21.9542 21.8199 22.1196 21.6786C22.285 21.5373 22.4861 21.4443 22.7009 21.4099L30.5026 20.2682C30.6962 20.2482 30.881 20.1772 31.0382 20.0624C31.1954 19.9477 31.3194 19.7933 31.3975 19.6151L34.91 12.5488C35.004 12.3485 35.1523 12.1785 35.3381 12.0583C35.5238 11.9381 35.7396 11.8723 35.9608 11.8686C36.182 11.8648 36.3999 11.9232 36.5896 12.0371C36.7793 12.151 36.9333 12.3158 37.034 12.5128H37.0289Z" fill="#CC7A00"/>
</g>
<defs>
<clipPath id="clip0_1956_2998">
<rect width="72" height="72" fill="white"/>
</clipPath>
</defs>
</svg>
