<svg width="58" height="58" viewBox="0 0 58 58" fill="none" xmlns="http://www.w3.org/2000/svg">
<path d="M11.1253 46.1213C10.6558 45.6519 10.4211 45.1102 10.4211 44.4963C10.4211 43.8825 10.6558 43.3408 11.1253 42.8714L24.2336 29.763C24.4503 29.5464 24.685 29.3925 24.9378 29.3015C25.1905 29.212 25.4614 29.1672 25.7503 29.1672C26.0391 29.1672 26.31 29.212 26.5628 29.3015C26.8155 29.3925 27.0503 29.5464 27.2669 29.763L34.4169 36.913L46 23.8047C46.3972 23.3352 46.9122 23.1005 47.5448 23.1005C48.1761 23.1005 48.7083 23.3172 49.1417 23.7505C49.5389 24.1477 49.7469 24.6266 49.7657 25.187C49.783 25.746 49.5931 26.2422 49.1958 26.6755L35.9336 41.6797C35.7169 41.9325 35.4735 42.1217 35.2034 42.2474C34.9319 42.3745 34.6516 42.438 34.3628 42.438C34.0739 42.438 33.7944 42.3839 33.5243 42.2755C33.2527 42.1672 33.0086 42.0047 32.7919 41.788L25.7503 34.7464L14.3753 46.1213C13.9058 46.5908 13.3641 46.8255 12.7503 46.8255C12.1364 46.8255 11.5947 46.5908 11.1253 46.1213ZM11.6669 32.1464C11.4864 32.1464 11.3058 32.1009 11.1253 32.0099C10.9447 31.9203 10.8003 31.7672 10.6919 31.5505L9.60859 29.2214L7.27943 28.138C7.06276 28.0297 6.90965 27.8852 6.82009 27.7047C6.72909 27.5241 6.68359 27.3436 6.68359 27.163C6.68359 26.9825 6.72909 26.8019 6.82009 26.6214C6.90965 26.4408 7.06276 26.2964 7.27943 26.188L9.60859 25.1047L10.6919 22.7755C10.8003 22.5589 10.9447 22.405 11.1253 22.314C11.3058 22.2245 11.4864 22.1797 11.6669 22.1797C11.8475 22.1797 12.028 22.2245 12.2086 22.314C12.3891 22.405 12.5336 22.5589 12.6419 22.7755L13.7253 25.1047L16.0544 26.188C16.4516 26.3686 16.6503 26.6936 16.6503 27.163C16.6503 27.6325 16.4516 27.9575 16.0544 28.138L13.7253 29.2214L12.6419 31.5505C12.5336 31.7672 12.3891 31.9203 12.2086 32.0099C12.028 32.1009 11.8475 32.1464 11.6669 32.1464ZM32.3044 25.7547C32.1239 25.7547 31.9433 25.7092 31.7628 25.6182C31.5822 25.5286 31.4378 25.3755 31.3294 25.1589L30.2461 22.8297L27.9169 21.7464C27.7003 21.638 27.5471 21.4936 27.4576 21.313C27.3666 21.1325 27.3211 20.9519 27.3211 20.7714C27.3211 20.5908 27.3666 20.4102 27.4576 20.2297C27.5471 20.0491 27.7003 19.9047 27.9169 19.7964L30.2461 18.713L31.3294 16.3839C31.4378 16.1672 31.5822 16.0134 31.7628 15.9224C31.9433 15.8328 32.1239 15.788 32.3044 15.788C32.485 15.788 32.6655 15.8328 32.8461 15.9224C33.0267 16.0134 33.1711 16.1672 33.2794 16.3839L34.3628 18.713L36.6919 19.7964C36.9086 19.9047 37.0624 20.0491 37.1534 20.2297C37.243 20.4102 37.2878 20.5908 37.2878 20.7714C37.2878 20.9519 37.243 21.1325 37.1534 21.313C37.0624 21.4936 36.9086 21.638 36.6919 21.7464L34.3628 22.8297L33.2794 25.1589C33.1711 25.3755 33.0267 25.5286 32.8461 25.6182C32.6655 25.7092 32.485 25.7547 32.3044 25.7547ZM21.4169 21.313C21.2364 21.313 21.0558 21.2589 20.8753 21.1505C20.6947 21.0422 20.5503 20.8797 20.4419 20.663L19.0336 17.6297L16.0003 16.2214C15.7836 16.113 15.6211 15.9686 15.5128 15.788C15.4044 15.6075 15.3503 15.4269 15.3503 15.2464C15.3503 15.0658 15.4044 14.8852 15.5128 14.7047C15.6211 14.5241 15.7836 14.3797 16.0003 14.2714L19.0336 12.863L20.4419 9.82969C20.5503 9.61302 20.6947 9.45052 20.8753 9.34219C21.0558 9.23385 21.2364 9.17969 21.4169 9.17969C21.5975 9.17969 21.778 9.23385 21.9586 9.34219C22.1391 9.45052 22.2836 9.61302 22.3919 9.82969L23.8003 12.863L26.8336 14.2714C27.0503 14.3797 27.2128 14.5241 27.3211 14.7047C27.4294 14.8852 27.4836 15.0658 27.4836 15.2464C27.4836 15.4269 27.4294 15.6075 27.3211 15.788C27.2128 15.9686 27.0503 16.113 26.8336 16.2214L23.8003 17.6297L22.3919 20.663C22.2836 20.8797 22.1391 21.0422 21.9586 21.1505C21.778 21.2589 21.5975 21.313 21.4169 21.313Z" fill="#7C1CFF"/>
<path d="M40 25.3296L48.5 24.3296V32.8296" stroke="#7C1CFF" stroke-width="4" stroke-linecap="round" stroke-linejoin="round"/>
<path d="M11.6669 32.1464C11.4864 32.1464 11.3058 32.1009 11.1253 32.0099C10.9447 31.9203 10.8003 31.7672 10.6919 31.5505L9.60859 29.2214L7.27943 28.138C7.06276 28.0297 6.90965 27.8852 6.82009 27.7047C6.72909 27.5241 6.68359 27.3436 6.68359 27.163C6.68359 26.9825 6.72909 26.8019 6.82009 26.6214C6.90965 26.4408 7.06276 26.2964 7.27943 26.188L9.60859 25.1047L10.6919 22.7755C10.8003 22.5589 10.9447 22.405 11.1253 22.314C11.3058 22.2245 11.4864 22.1797 11.6669 22.1797C11.8475 22.1797 12.028 22.2245 12.2086 22.314C12.3891 22.405 12.5336 22.5589 12.6419 22.7755L13.7253 25.1047L16.0544 26.188C16.4516 26.3686 16.6503 26.6936 16.6503 27.163C16.6503 27.6325 16.4516 27.9575 16.0544 28.138L13.7253 29.2214L12.6419 31.5505C12.5336 31.7672 12.3891 31.9203 12.2086 32.0099C12.028 32.1009 11.8475 32.1464 11.6669 32.1464ZM32.3044 25.7547C32.1239 25.7547 31.9433 25.7092 31.7628 25.6182C31.5822 25.5286 31.4378 25.3755 31.3294 25.1589L30.2461 22.8297L27.9169 21.7464C27.7003 21.638 27.5471 21.4936 27.4576 21.313C27.3666 21.1325 27.3211 20.9519 27.3211 20.7714C27.3211 20.5908 27.3666 20.4102 27.4576 20.2297C27.5471 20.0491 27.7003 19.9047 27.9169 19.7964L30.2461 18.713L31.3294 16.3839C31.4378 16.1672 31.5822 16.0134 31.7628 15.9224C31.9433 15.8328 32.1239 15.788 32.3044 15.788C32.485 15.788 32.6655 15.8328 32.8461 15.9224C33.0267 16.0134 33.1711 16.1672 33.2794 16.3839L34.3628 18.713L36.6919 19.7964C36.9086 19.9047 37.0624 20.0491 37.1534 20.2297C37.243 20.4102 37.2878 20.5908 37.2878 20.7714C37.2878 20.9519 37.243 21.1325 37.1534 21.313C37.0624 21.4936 36.9086 21.638 36.6919 21.7464L34.3628 22.8297L33.2794 25.1589C33.1711 25.3755 33.0267 25.5286 32.8461 25.6182C32.6655 25.7092 32.485 25.7547 32.3044 25.7547ZM21.4169 21.313C21.2364 21.313 21.0558 21.2589 20.8753 21.1505C20.6947 21.0422 20.5503 20.8797 20.4419 20.663L19.0336 17.6297L16.0003 16.2214C15.7836 16.113 15.6211 15.9686 15.5128 15.788C15.4044 15.6075 15.3503 15.4269 15.3503 15.2464C15.3503 15.0658 15.4044 14.8852 15.5128 14.7047C15.6211 14.5241 15.7836 14.3797 16.0003 14.2714L19.0336 12.863L20.4419 9.82969C20.5503 9.61302 20.6947 9.45052 20.8753 9.34219C21.0558 9.23385 21.2364 9.17969 21.4169 9.17969C21.5975 9.17969 21.778 9.23385 21.9586 9.34219C22.1391 9.45052 22.2836 9.61302 22.3919 9.82969L23.8003 12.863L26.8336 14.2714C27.0503 14.3797 27.2128 14.5241 27.3211 14.7047C27.4294 14.8852 27.4836 15.0658 27.4836 15.2464C27.4836 15.4269 27.4294 15.6075 27.3211 15.788C27.2128 15.9686 27.0503 16.113 26.8336 16.2214L23.8003 17.6297L22.3919 20.663C22.2836 20.8797 22.1391 21.0422 21.9586 21.1505C21.778 21.2589 21.5975 21.313 21.4169 21.313Z" fill="#FBAD18"/>
</svg>
