<svg width="72" height="72" viewBox="0 0 72 72" fill="none" xmlns="http://www.w3.org/2000/svg">
<g clip-path="url(#clip0_1956_3030)">
<path d="M20.5703 7.71428C20.5703 3.4538 24.0241 0 28.2846 0H56.5703C60.8307 0 64.2846 3.4538 64.2846 7.71428V51.4286C64.2846 55.6889 60.8307 59.1429 56.5703 59.1429H28.2846C24.0241 59.1429 20.5703 55.6889 20.5703 51.4286V7.71428Z" fill="#0099FF"/>
<path d="M7.71289 20.5715C7.71289 16.311 11.1667 12.8572 15.4272 12.8572H43.7129C47.9734 12.8572 51.4272 16.311 51.4272 20.5715V64.2857C51.4272 68.5461 47.9734 72 43.7129 72H15.4272C11.1667 72 7.71289 68.5461 7.71289 64.2857V20.5715Z" fill="#E4FAFF"/>
<path fill-rule="evenodd" clip-rule="evenodd" d="M16.0678 25.7143C16.0678 23.9391 17.5069 22.5 19.2821 22.5H39.8535C41.6287 22.5 43.0678 23.9391 43.0678 25.7143C43.0678 27.4895 41.6287 28.9286 39.8535 28.9286H19.2821C17.5069 28.9286 16.0678 27.4895 16.0678 25.7143ZM16.0703 38.5714C16.0703 36.7962 17.5094 35.3571 19.2846 35.3571H39.856C41.6312 35.3571 43.0703 36.7962 43.0703 38.5714C43.0703 40.3466 41.6312 41.7857 39.856 41.7857H19.2846C17.5094 41.7857 16.0703 40.3466 16.0703 38.5714ZM19.2807 48.2143C17.5055 48.2143 16.0664 49.6534 16.0664 51.4286C16.0664 53.2039 17.5055 54.6429 19.2807 54.6429H29.5664C31.3416 54.6429 32.7807 53.2039 32.7807 51.4286C32.7807 49.6534 31.3416 48.2143 29.5664 48.2143H19.2807Z" fill="#0099FF"/>
</g>
<defs>
<clipPath id="clip0_1956_3030">
<rect width="72" height="72" fill="white"/>
</clipPath>
</defs>
</svg>
