<svg width="73" height="72" viewBox="0 0 73 72" fill="none" xmlns="http://www.w3.org/2000/svg">
<g clip-path="url(#clip0_1956_3038)">
<path fill-rule="evenodd" clip-rule="evenodd" d="M36.3348 7.71429C31.9019 7.71429 27.6506 9.47525 24.516 12.6098C21.3815 15.7443 19.6205 19.9957 19.6205 24.4286V37.2857C19.6205 38.3087 19.2142 39.2898 18.4908 40.0131C17.7675 40.7365 16.7864 41.1429 15.7634 41.1429C14.7404 41.1429 13.7593 40.7365 13.036 40.0131C12.3126 39.2898 11.9062 38.3087 11.9062 37.2857V24.4286C11.9062 17.9497 14.48 11.7362 19.0612 7.15496C23.6425 2.57372 29.856 0 36.3348 0L37.6205 0C44.0994 0 50.3129 2.57372 54.8941 7.15496C59.4754 11.7362 62.0491 17.9497 62.0491 24.4286V52.1074C62.0491 56.6949 59.7451 60.6806 56.9423 63.4114C54.196 66.0909 50.3903 68.1429 46.6205 68.1429C45.5976 68.1429 44.6165 67.7365 43.8931 67.0131C43.1698 66.2898 42.7634 65.3087 42.7634 64.2857C42.7634 63.2627 43.1698 62.2817 43.8931 61.5583C44.6165 60.835 45.5976 60.4286 46.6205 60.4286C47.7571 60.4286 49.7371 59.6674 51.5577 57.8931C53.3114 56.1754 54.3348 54.072 54.3348 52.1074V24.4286C54.3348 19.9957 52.5739 15.7443 49.4393 12.6098C46.3048 9.47525 42.0534 7.71429 37.6205 7.71429H36.3348Z" fill="#D5BEFC"/>
<path d="M26.0488 64.2858C26.0488 62.2399 26.8616 60.2777 28.3083 58.831C29.755 57.3843 31.7172 56.5715 33.7631 56.5715H41.4774C43.5234 56.5715 45.4855 57.3843 46.9322 58.831C48.3789 60.2777 49.1917 62.2399 49.1917 64.2858C49.1917 66.3318 48.3789 68.2939 46.9322 69.7406C45.4855 71.1874 43.5234 72.0001 41.4774 72.0001H33.7631C31.7172 72.0001 29.755 71.1874 28.3083 69.7406C26.8616 68.2939 26.0488 66.3318 26.0488 64.2858Z" fill="#8E51F7"/>
<path d="M0.333984 33.4286C0.333984 31.3827 1.14674 29.4205 2.59345 27.9738C4.04016 26.5271 6.00231 25.7144 8.04827 25.7144H19.6197V46.2858C19.6197 47.6498 19.0779 48.9579 18.1134 49.9223C17.1489 50.8868 15.8408 51.4286 14.4768 51.4286H8.04827C6.00231 51.4286 4.04016 50.6159 2.59345 49.1692C1.14674 47.7225 0.333984 45.7603 0.333984 43.7144L0.333984 33.4286Z" fill="#8E51F7"/>
<path d="M54.334 25.7144H64.6197C66.6657 25.7144 68.6278 26.5271 70.0745 27.9738C71.5212 29.4205 72.334 31.3827 72.334 33.4286V43.7144C72.334 45.7603 71.5212 47.7225 70.0745 49.1692C68.6278 50.6159 66.6657 51.4286 64.6197 51.4286H54.334V25.7144Z" fill="#8E51F7"/>
</g>
<defs>
<clipPath id="clip0_1956_3038">
<rect width="72" height="72" fill="white" transform="translate(0.333984)"/>
</clipPath>
</defs>
</svg>
