<svg width="104" height="104" viewBox="0 0 104 104" fill="none" xmlns="http://www.w3.org/2000/svg">
<g clip-path="url(#clip0_1832_4163)">
<path d="M35.727 81.1279C38.0908 73.7789 34.1089 65.6187 26.5287 63.6648C15.9915 60.9476 6.91536 70.9048 10.422 81.1279C6.06052 81.1672 3.18634 78.4587 2.8854 74.1322C2.32278 66.0505 2.40565 59.5563 11.4294 57.5631C16.48 56.451 22.0713 56.0279 27.0215 54.75C28.1599 54.4578 28.6484 54.2659 29.5643 53.5288C33.3543 50.454 39.1376 42.2807 43.5819 41.1991C46.1464 40.5754 49.3782 41.1991 52.0387 40.9766C51.9689 52.8921 60.3821 63.8 71.905 66.7047C68.0451 70.582 66.7541 75.8681 68.3504 81.1323H35.727V81.1279Z" fill="#D5BEFC"/>
<path d="M21.8796 67.7991C34.1003 66.338 35.5265 84.8217 23.489 85.5152C12.4328 86.152 10.7972 69.125 21.8796 67.7991ZM22.4946 74.4808C19.9082 75.0042 20.5755 79.1999 23.4366 78.7855C26.2977 78.3712 25.7787 73.8135 22.4946 74.4808Z" fill="#7225F5"/>
<path d="M79.8044 67.7993C92.4046 66.299 93.1417 85.1447 81.4094 85.5198C70.0784 85.8862 69.0535 69.0816 79.8044 67.7993ZM80.4194 74.481C77.9857 75.048 78.4742 79.2088 81.3658 78.7858C84.2574 78.3627 83.6861 73.7178 80.4194 74.481Z" fill="#7225F5"/>
<path d="M99.5035 58.1257C99.7216 58.3045 100.716 60.6553 100.825 61.0914C101.423 63.4379 101.501 73.8355 100.869 76.1122C99.9571 79.4007 96.9957 81.2369 93.6505 81.1278C95.6698 75.3838 93.6025 69.2953 88.8398 65.6579C91.7402 64.5108 94.4617 62.8186 96.7907 60.7425C97.6456 59.9793 98.2998 59.0765 99.0718 58.2609C99.2113 58.117 99.364 58.0123 99.5035 58.13V58.1257Z" fill="#D5BEFC"/>
<circle cx="78.753" cy="40.9341" r="22.1944" fill="#7225F5"/>
<g clip-path="url(#clip1_1832_4163)">
<path d="M87.3312 30.6313C87.6515 30.7661 87.7415 30.9654 87.7716 31.2811C87.8016 31.6152 87.8149 32.8228 87.6748 33.0802C87.6448 33.1354 87.4379 33.3224 87.4046 33.3224H83.0843C83.2978 33.7239 83.5847 34.0886 83.7749 34.5024C83.9517 34.8856 84.0585 35.284 84.2052 35.6794L87.3078 35.6978C87.5847 35.7346 87.7482 35.9215 87.7716 36.1667C87.8149 36.605 87.8149 37.4816 87.7716 37.9199C87.7415 38.208 87.558 38.3368 87.2578 38.3889H84.2052C83.8583 41.0708 81.6298 42.9527 78.8942 43.6669C78.327 43.814 77.7399 43.86 77.1927 43.9887C77.126 44.004 77.056 43.9611 77.0793 44.0623C78.257 45.2086 79.4012 46.3886 80.5222 47.584C81.9834 49.1441 83.5914 50.8237 84.9392 52.4512C85.0393 52.5708 85.2928 52.8282 85.3228 52.9539C85.3929 53.239 85.1527 53.5792 84.8191 53.5945C83.6882 53.5209 82.4138 53.6895 81.2995 53.5945C81.1761 53.5853 81.0626 53.573 80.9592 53.5026C78.5172 50.8728 76.1018 48.2215 73.5864 45.653C73.3028 45.3649 71.9217 44.1113 71.8616 43.8722C71.7916 43.5841 71.8049 41.929 71.8516 41.5918C71.8917 41.2792 72.1452 41.1535 72.4655 41.1229C73.2862 41.0432 74.257 41.1627 75.1043 41.1229C77.0526 41.0309 79.4913 40.3597 79.9617 38.3858H72.2686C72.2286 38.3858 71.9917 38.2326 71.9517 38.1835C71.8683 38.0854 71.865 38.0364 71.8516 37.9169C71.8116 37.5337 71.7949 36.4365 71.8583 36.0778C71.8783 35.9614 72.1152 35.6947 72.2219 35.6947H79.7182C79.101 34.3921 77.2595 33.9354 75.8349 33.8557C74.7741 33.7975 73.6064 33.9385 72.5622 33.8557C72.2353 33.8312 71.8983 33.7178 71.855 33.3837C71.7982 32.9362 71.7882 31.4864 71.855 31.0481C71.885 30.8336 72.0651 30.7447 72.2419 30.6313H87.3279H87.3312Z" fill="white"/>
</g>
</g>
<defs>
<clipPath id="clip0_1832_4163">
<rect width="98.6206" height="67.0657" fill="white" transform="translate(2.68945 18.4671)"/>
</clipPath>
<clipPath id="clip1_1832_4163">
<rect width="16" height="23" fill="white" transform="translate(71.8047 30.6313)"/>
</clipPath>
</defs>
</svg>
