<svg width="73" height="72" viewBox="0 0 73 72" fill="none" xmlns="http://www.w3.org/2000/svg">
<g clip-path="url(#clip0_1956_3014)">
<path d="M9.33398 0.736572H63.334C67.9024 0.736572 71.6035 4.43671 71.6035 9.00513V62.9944C71.6035 67.5628 67.9024 71.2639 63.334 71.2639H9.34473C4.77631 71.2639 1.07617 67.5628 1.07617 62.9944V9.00513L1.08691 8.58032C1.30806 4.21375 4.91891 0.736821 9.33398 0.736572Z" fill="white" stroke="#DEDEDE"/>
<path d="M9.33398 0.736572H63.334C67.9024 0.736572 71.6035 4.4421 71.6035 9.00024V17.5002H1.07617V9.00513C1.07618 4.44143 4.77664 0.736829 9.33398 0.736572Z" fill="#157B6A" stroke="#DEDEDE"/>
<path fill-rule="evenodd" clip-rule="evenodd" d="M51.7323 31.6955C52.5013 32.3695 52.9711 33.3213 53.0386 34.3416C53.1062 35.3619 52.7658 36.3672 52.0923 37.1367L34.0923 57.7081C33.4517 58.4394 32.5586 58.9019 31.5917 59.003C30.6248 59.1041 29.6554 58.8363 28.8774 58.2532L18.5917 50.5389C17.7733 49.9252 17.2323 49.0114 17.0876 47.9987C16.9429 46.986 17.2065 45.9573 17.8203 45.139C18.4341 44.3206 19.3478 43.7795 20.3605 43.6349C21.3732 43.4902 22.4019 43.7537 23.2203 44.3675L30.6466 49.9372L46.2911 32.0555C46.9651 31.2865 47.9169 30.8167 48.9372 30.7491C49.9575 30.6816 50.9629 31.022 51.7323 31.6955Z" fill="#157B6A"/>
</g>
<defs>
<clipPath id="clip0_1956_3014">
<rect width="72" height="72" fill="white" transform="translate(0.333984)"/>
</clipPath>
</defs>
</svg>
