<svg width="20" height="21" viewBox="0 0 20 21" fill="none" xmlns="http://www.w3.org/2000/svg">
<g clip-path="url(#clip0_2080_3454)">
<mask id="mask0_2080_3454" style="mask-type:luminance" maskUnits="userSpaceOnUse" x="0" y="0" width="20" height="21">
<path d="M0 0.0473633H19.9996V20.0469H0V0.0473633Z" fill="white"/>
</mask>
<g mask="url(#mask0_2080_3454)">
<path d="M19.8687 5.85943C19.8687 4.10164 18.5758 2.6876 16.9781 2.6876C14.8141 2.58643 12.6071 2.54736 10.3516 2.54736H9.64852C7.39856 2.54736 5.18765 2.58643 3.02363 2.68799C1.42991 2.68799 0.136955 4.10984 0.136955 5.86764C0.0392996 7.25785 -0.00210618 8.64847 0.000237539 10.0391C-0.00366866 11.4297 0.0406015 12.8216 0.133048 14.2148C0.133048 15.9726 1.426 17.3983 3.01973 17.3983C5.29311 17.5038 7.6251 17.5507 9.99619 17.5468C12.3711 17.5546 14.6967 17.5051 16.9726 17.3983C18.5703 17.3983 19.8632 15.9726 19.8632 14.2148C19.957 12.8203 20 11.4297 19.9961 10.0351C20.0049 8.64456 19.9625 7.25264 19.8687 5.85943ZM8.08606 13.8711V6.19535L13.75 10.0313L8.08606 13.8711Z" fill="white"/>
</g>
</g>
<defs>
<clipPath id="clip0_2080_3454">
<rect width="20" height="20" fill="white" transform="translate(0 0.0498047)"/>
</clipPath>
</defs>
</svg>
